<svg id="Layer_1" data-name="Layer 1" xmlns="http://www.w3.org/2000/svg" viewBox="0 0 100 100.01"><defs><style>.cls-1,.cls-2{fill:none;stroke:#3e3e3e;stroke-miterlimit:10;}.cls-1{stroke-width:1.83px;}.cls-2{stroke-width:0.46px;}.cls-3{font-size:34.7px;font-family:Rockwell;font-weight:700;letter-spacing:0.82px;}.cls-3,.cls-4{fill:#3e3e3e;}</style></defs><title>benioff</title><circle class="cls-1" cx="48.17" cy="42.57" r="29.1"/><circle class="cls-2" cx="48.17" cy="42.57" r="32.39"/><text class="cls-3" transform="translate(27.1 55.13) scale(1.22 1)">M</text><path class="cls-4" d="M0.44,87.26V86.18h1V81.95h-1V80.87H4.35l1.71,3.74,1.72-3.74h4v1.08h-1v4.23h1v1.08H7.85V86.18H8.79V81.95H8.6L6.19,87.26H5.35L2.9,81.95H2.72v4.23h1v1.08H0.44Z"/><path class="cls-4" d="M20.58,86.18v1.08H16.74V86.18h1l-0.37-1.1h-2l-0.42,1.1h1v1.08H12.52V86.18h1L15,81.95H14V80.87h5.09v1.08H18l1.64,4.23h0.93Zm-3.53-2L16.4,82.22l-0.7,1.93h1.35Z"/><path class="cls-4" d="M29.42,86.18v1.08H27l-1.76-2.8H24.39v1.72h1v1.08H21.29V86.18h1.07V81.95H21.29V80.87H26a2.75,2.75,0,0,1,1.91.55,1.67,1.67,0,0,1,.59,1.24,1.71,1.71,0,0,1-1.35,1.59l1.27,1.93h1Zm-5-2.74h0.69q1.29,0,1.29-.75a0.61,0.61,0,0,0-.29-0.56,1.52,1.52,0,0,0-.81-0.18H24.39v1.49Z"/><path class="cls-4" d="M36.87,80.87h1.32v2.25H36.87a2,2,0,0,0-1.95-1.21,2.23,2.23,0,0,0-1.73.64,2.19,2.19,0,0,0-.59,1.53,2,2,0,0,0,.62,1.51,2.42,2.42,0,0,0,3,.14,2.15,2.15,0,0,0,.8-1.21l1.54,0.6q-0.87,2.23-3.85,2.23a4.72,4.72,0,0,1-3.17-.93,3,3,0,0,1-1.07-2.35A2.92,2.92,0,0,1,31,82.29a3.4,3.4,0,0,1,1.49-1.14,5.39,5.39,0,0,1,2.06-.38,4.28,4.28,0,0,1,2.34.6v-0.5Z"/><path class="cls-4" d="M43,87.26V86.18h1V81.95H43V80.87h3.56a10,10,0,0,1,1.76.11,1.86,1.86,0,0,1,1,.55,1.42,1.42,0,0,1,.42,1,1.38,1.38,0,0,1-1.1,1.32A1.62,1.62,0,0,1,50,85.39a1.51,1.51,0,0,1-.43,1.09,2.22,2.22,0,0,1-1.12.62,8.81,8.81,0,0,1-1.93.16H43Zm3-3.87h0.57a1.78,1.78,0,0,0,.87-0.17,0.62,0.62,0,0,0,.28-0.58,0.57,0.57,0,0,0-.27-0.54,2.05,2.05,0,0,0-1-.16H46v1.44Zm0,2.79h0.57A2.28,2.28,0,0,0,47.64,86a0.69,0.69,0,0,0,.31-0.65,0.72,0.72,0,0,0-.33-0.68,2.19,2.19,0,0,0-1.06-.2H46v1.71Z"/><path class="cls-4" d="M51.47,87.26V86.18H52.4V81.95H51.47V80.87h6.87v2H56.85V81.95H54.43v1.47h2V84.5h-2v1.68h2.42v-1h1.49v2H51.47Z"/><path class="cls-4" d="M59.51,87.26V86.18h1V81.95h-1V80.87h3.28l2.87,4V81.95h-1V80.87h3.5v1.08H67V87.3H65.31l-3.36-4.74v3.61h1v1.08H59.51Z"/><path class="cls-4" d="M69,87.26V86.18h1.18V81.95H69V80.87h4.41v1.08H72.22v4.23h1.19v1.08H69Z"/><path class="cls-4" d="M79,80.77a4.85,4.85,0,0,1,3.18,1,2.92,2.92,0,0,1,0,4.66,4.86,4.86,0,0,1-3.17,1,4.73,4.73,0,0,1-3.21-1,3,3,0,0,1-1.12-2.3,2.93,2.93,0,0,1,1.15-2.33A4.83,4.83,0,0,1,79,80.77Zm0,1.17a2.22,2.22,0,0,0-1.52.55,2,2,0,0,0-.62,1.62,2,2,0,0,0,.62,1.51,2.18,2.18,0,0,0,1.53.57,2.23,2.23,0,0,0,1.53-.55,2.28,2.28,0,0,0,0-3.11A2.15,2.15,0,0,0,79,81.93Z"/><path class="cls-4" d="M84.7,87.26V86.18h1.12V81.95H84.7V80.87h7v2H90.19V81.95H87.85v1.48h1.69v1.08H87.85v1.67H89v1.08H84.7Z"/><path class="cls-4" d="M92.58,87.26V86.18h1.12V81.95H92.58V80.87h7v2H98.07V81.95H95.72v1.48h1.69v1.08H95.72v1.67h1.2v1.08H92.58Z"/></svg>