<svg id="Layer_1" data-name="Layer 1" xmlns="http://www.w3.org/2000/svg" viewBox="0 0 100 100"><defs><style>.cls-1{fill:#3e3e3e;}</style></defs><title>Untitled-1</title><path class="cls-1" d="M100,59.74a3.51,3.51,0,0,1-2.71,1.68,9.43,9.43,0,0,1-5.65-.4,3.58,3.58,0,0,1-2-3c-0.49-3.85-.11-7.72-0.22-11.58,0-1.09,0-1.09-1.08-1.1a1.85,1.85,0,0,1-1.85-1.88,2,2,0,0,1,1.93-1.69c1-.05,1-0.05,1-1.07,0-1.19,0-2.38,0-3.57a2.61,2.61,0,0,1,1.2-2.26,2.49,2.49,0,0,1,3.68,1.71c0.13,1.17,0,2.33.09,3.49,0,0.4,0,.81,0,1.21a0.41,0.41,0,0,0,.48.5,8,8,0,0,1,2.3.1,1.73,1.73,0,0,1,1,2.62,2.24,2.24,0,0,1-1.79.83,9.56,9.56,0,0,1-1.57,0,0.34,0.34,0,0,0-.39.38c0,2.78-.07,5.56,0,8.33a11.57,11.57,0,0,0,.18,2.71,1.59,1.59,0,0,0,1.82,1c0.53-.11,1.07-0.21,1.61-0.28a1.86,1.86,0,0,1,2,1.08v1.19Z"/><path class="cls-1" d="M35.71,32.25a2.63,2.63,0,0,1,1.8,1.44,3.69,3.69,0,0,1,.37,1.47q0,7.65,0,15.3A3,3,0,0,1,36,53.11a2.63,2.63,0,0,1-2.67-.9A3.66,3.66,0,0,1,32.68,50c0-4.83,0-9.66,0-14.49a4,4,0,0,1,.73-2.38,3.27,3.27,0,0,1,1.33-.92h1Z"/><path class="cls-1" d="M84.58,47.84a1.9,1.9,0,0,1-1.65-.67c-0.4-.46-0.82-0.9-1.23-1.34a3.55,3.55,0,0,0-2.08-1.2,4.74,4.74,0,0,0-3.39.54A1.57,1.57,0,0,0,76.35,48a12.7,12.7,0,0,0,3.45,1.17,16.38,16.38,0,0,1,5.93,2.29,4.59,4.59,0,0,1,1.91,4.93A5.75,5.75,0,0,1,86,59.47a8.25,8.25,0,0,1-4,1.91,19.79,19.79,0,0,1-2.64.27,12.15,12.15,0,0,1-2.65-.18,9.16,9.16,0,0,1-4-1.54,4.5,4.5,0,0,1-2.16-3.75,2,2,0,0,1,1.72-1.92,1.94,1.94,0,0,1,1.95.77,11.07,11.07,0,0,0,1.66,2.19,4.12,4.12,0,0,0,2.2,1,6.89,6.89,0,0,0,2.49,0,2.8,2.8,0,0,0,2.12-1.48A2.13,2.13,0,0,0,82,54.44a8.63,8.63,0,0,0-2.7-1.08c-2.25-.63-4.57-1.08-6.54-2.46a4.54,4.54,0,0,1-1.88-5,5.87,5.87,0,0,1,3.77-4,11.83,11.83,0,0,1,5.62-.58,8.72,8.72,0,0,1,4.86,1.8,3.26,3.26,0,0,1,1.51,3,1.76,1.76,0,0,1-1.85,1.67H84.58Z"/><path class="cls-1" d="M70.48,48.17a8.82,8.82,0,0,0-5.72-6.24,11.15,11.15,0,0,0-5.67-.48,9.56,9.56,0,0,0-3.74,1.32,8.91,8.91,0,0,0-3.12,3.31,3.11,3.11,0,0,1-.69,1.21,16.09,16.09,0,0,0-1-3A16.44,16.44,0,0,0,47.76,40a29.15,29.15,0,0,0-3-2.7,3,3,0,0,0-3.26-.51,3.08,3.08,0,0,0-1.55,2.71A3.47,3.47,0,0,0,41.61,42a9.68,9.68,0,0,1,2.77,2.69,10.69,10.69,0,0,1,2.05,6.58,12.52,12.52,0,0,1-.2,2,10.66,10.66,0,0,1-2.57,5.21A11.38,11.38,0,0,1,40.33,61a10.73,10.73,0,0,1-4.27,1.17A12,12,0,0,1,33.24,62,10.49,10.49,0,0,1,28,59.5,11.18,11.18,0,0,1,24.31,53a10.41,10.41,0,0,1,.09-4.33,10.82,10.82,0,0,1,4.71-6.83,3.19,3.19,0,0,0,1.49-2.06,2.73,2.73,0,0,0-2.48-3.22,3.65,3.65,0,0,0-2.32.84,18.21,18.21,0,0,0-3.5,3.24A14.91,14.91,0,0,0,20,44.5c-0.33.81-.6,1.65-1,2.63C17.93,44,16,42,12.79,41.46a8.47,8.47,0,0,0-8,2.87c0-2.64,0-5.14,0-7.65a4.2,4.2,0,0,0-.11-1A2.29,2.29,0,0,0,2.6,33.87,2.33,2.33,0,0,0,.2,35.47a1.54,1.54,0,0,1-.2.78V59.42a3.09,3.09,0,0,0,.46,1.46,2.37,2.37,0,0,0,2.48.81A2.2,2.2,0,0,0,4.7,60.1,10.1,10.1,0,0,0,5,58.69a7.48,7.48,0,0,0,8,2.9c3.19-.63,5.07-2.81,6.16-5.89,0.16,0.48.28,0.85,0.41,1.22A12,12,0,0,0,20,58.06a16.84,16.84,0,0,0,10.06,9,14.51,14.51,0,0,0,3.42.67h3.79a1.18,1.18,0,0,1,.67-0.21,13.37,13.37,0,0,0,4.27-1.24A16.26,16.26,0,0,0,47.89,62a17.64,17.64,0,0,0,2.9-4.72,10.41,10.41,0,0,1,.79-2,7.8,7.8,0,0,0,1.1,2.28A9.28,9.28,0,0,0,57,61a11.64,11.64,0,0,0,4.25.7,13.51,13.51,0,0,0,1.68-.16,9,9,0,0,0,5.35-2.7A10.35,10.35,0,0,0,71,51.29,12.07,12.07,0,0,0,70.48,48.17ZM13.67,55.33a4.53,4.53,0,0,1-2.86,2.29,4.67,4.67,0,0,1-5.22-2.75A9.68,9.68,0,0,1,5,51.73,7.45,7.45,0,0,1,6.28,47,4.39,4.39,0,0,1,9.73,45.1a4.31,4.31,0,0,1,4.24,3,9.11,9.11,0,0,1,.53,3.41A7.05,7.05,0,0,1,13.67,55.33Zm52.24-3.65A7.5,7.5,0,0,1,64.7,56a4,4,0,0,1-3.13,1.86,5.86,5.86,0,0,1-2.27-.23,3.45,3.45,0,0,1-1.83-1.34,7.17,7.17,0,0,1-1.41-4.77,8,8,0,0,1,1-4.3,4,4,0,0,1,3.35-2.06,4.48,4.48,0,0,1,3,.66,5.32,5.32,0,0,1,2.2,3.73A11.62,11.62,0,0,1,65.91,51.67Z"/></svg>