<svg id="Layer_1" data-name="Layer 1" xmlns="http://www.w3.org/2000/svg" viewBox="0 0 100 100.01"><defs><style>.cls-1{fill:#3e3e3e;}</style></defs><title>Untitled-1</title><path class="cls-1" d="M29.72,20.28l0.19,2.82a13.47,13.47,0,0,0-1.8-2.23,3.24,3.24,0,0,0,1.61-.59m-19.9.43a14.94,14.94,0,0,0-3.44,5.19A27.62,27.62,0,0,0,4.6,36.44a22.75,22.75,0,0,0,1.7,9.13,13.34,13.34,0,0,0,5.34,6.22A14.29,14.29,0,0,0,14.12,53a14.2,14.2,0,0,1-9.23-5.78A17.73,17.73,0,0,1,1.5,36.39a19.41,19.41,0,0,1,2.26-9.27A16.21,16.21,0,0,1,9.82,20.7M31,16.87H30.06a4.17,4.17,0,0,1-1,2,1.77,1.77,0,0,1-1.26.51,4.21,4.21,0,0,1-1.6-.59,17.08,17.08,0,0,0-7.75-1.93,18.1,18.1,0,0,0-9.32,2.5,17.61,17.61,0,0,0-6.7,7A20.8,20.8,0,0,0,0,36.39,19.11,19.11,0,0,0,3.69,48.1q4.95,6.68,14,6.68a16.11,16.11,0,0,0,8.64-2.25,19,19,0,0,0,6.36-7.09l-0.83-.53q-3.24,4.49-5.94,6a12.54,12.54,0,0,1-6.23,1.51,13.65,13.65,0,0,1-7.23-1.93A11.82,11.82,0,0,1,7.67,45,21.17,21.17,0,0,1,6.1,36.44a26,26,0,0,1,1.67-10,12.12,12.12,0,0,1,4.59-5.84,12,12,0,0,1,6.52-1.83,11.53,11.53,0,0,1,7.38,2.43q3.07,2.43,4.73,8h0.83L31,16.87h0Z"/><path class="cls-1" d="M61.23,33.5a16.56,16.56,0,0,0-1.57.87,16.81,16.81,0,0,0-6.37,8.06A34.45,34.45,0,0,0,51.06,55.6,28.31,28.31,0,0,0,53.18,67a16.45,16.45,0,0,0,6.58,7.66,18.4,18.4,0,0,0,8.39,2.59l-1,0c-7.14,0-12.51-2.56-16.4-7.83a22.75,22.75,0,0,1-4.36-13.88,24.88,24.88,0,0,1,2.89-11.87,20.83,20.83,0,0,1,7.89-8.3,21.36,21.36,0,0,1,4.08-1.85M82.7,34.39l0.4,6a16.9,16.9,0,0,0-3.85-4.88,3.1,3.1,0,0,0,.71.09,3.74,3.74,0,0,0,2.62-1.05l0,0,0,0,0.08-.08M84,30.9H82.79a5.26,5.26,0,0,1-1.25,2.53,2.23,2.23,0,0,1-1.59.64,5.31,5.31,0,0,1-2-.74,21.54,21.54,0,0,0-9.78-2.43,22.83,22.83,0,0,0-11.75,3.15,22.21,22.21,0,0,0-8.45,8.89,26.24,26.24,0,0,0-3.07,12.58A24.11,24.11,0,0,0,49.53,70.3q6.24,8.43,17.61,8.43A20.33,20.33,0,0,0,78,75.9a24,24,0,0,0,8-8.94l-1-.67Q80.93,72,77.52,73.86a15.81,15.81,0,0,1-7.86,1.91,17.22,17.22,0,0,1-9.12-2.43,14.91,14.91,0,0,1-6-7,26.71,26.71,0,0,1-2-10.76A32.83,32.83,0,0,1,54.67,43a14.42,14.42,0,0,1,14-9.68A14.55,14.55,0,0,1,78,36.4q3.88,3.07,6,10.05h1L84,30.9h0Z"/><path class="cls-1" d="M81.39,65.21L71,42.62V60.56q0,2.48.53,3.09a2.93,2.93,0,0,0,2.32.83h1v0.73H65.47V64.48h1a2.73,2.73,0,0,0,2.42-1,6,6,0,0,0,.44-2.89V43a6.13,6.13,0,0,0-.4-2.57,2.2,2.2,0,0,0-1-1,5.47,5.47,0,0,0-2.39-.39V38.36h7.6l9.74,21,9.58-21H100v0.73H99.07a2.75,2.75,0,0,0-2.44,1A6,6,0,0,0,96.2,43V60.56q0,2.48.55,3.09a2.93,2.93,0,0,0,2.32.83H100v0.73H88.59V64.48h1a2.7,2.7,0,0,0,2.42-1,6,6,0,0,0,.44-2.89V42.62L82,65.21H81.39Z"/><path class="cls-1" d="M57.59,83.14H45.7L30.64,62.32q-1.67.07-2.72,0.07l-0.92,0-1,0V75.26q0,4.2.92,5.22a4.67,4.67,0,0,0,3.74,1.44h1.74v1.22H13.3V81.92H15a4.48,4.48,0,0,0,4-1.84q0.69-1,.69-4.83V46.5q0-4.2-.92-5.22A4.82,4.82,0,0,0,15,39.84H13.3V38.62H29.52a38.56,38.56,0,0,1,10.46,1,12,12,0,0,1,5.71,3.81A9.91,9.91,0,0,1,48,50.08a10.39,10.39,0,0,1-2.68,7.12q-2.68,3-8.29,4.27l9.19,12.77a22.84,22.84,0,0,0,5.42,5.84,13.63,13.63,0,0,0,5.91,1.84v1.22ZM26,60.25l1.08,0,0.76,0q6.37,0,9.6-2.76a8.82,8.82,0,0,0,3.23-7A9.17,9.17,0,0,0,38,43.73a9.34,9.34,0,0,0-6.91-2.61,29,29,0,0,0-5.15.62V60.25Z"/></svg>