<svg id="Layer_1" data-name="Layer 1" xmlns="http://www.w3.org/2000/svg" viewBox="0 0 100 100.01"><defs><style>.cls-1{fill:#3e3e3e;}.cls-2{fill:#404040;}</style></defs><title>Untitled-1</title><path class="cls-1" d="M12.48,36.56c1.47,0.53,3,.9,4.5,1.34,2.26,0.67,4.52,1.3,6.78,2a1.16,1.16,0,0,1,1,1.19,29.89,29.89,0,0,1-.22,4c0,0.39-.2.35-0.49,0.27L12.83,42.12a1.5,1.5,0,0,0-.89,0C8.23,43.2,4.5,44.26.79,45.36c-0.44.13-.55,0-0.58-0.39C0.21,45,0,41,0,40.72a1.3,1.3,0,0,1,1.09-1c3.36-1,6.72-1.92,10.08-2.92,0.37-.11.76-0.12,1.13-0.22h0.19Z"/><path class="cls-1" d="M12.37,43.75L13.43,44c3.43,1,6.85,2,10.29,3a0.44,0.44,0,0,1,.37.66,33,33,0,0,1-1.35,4.15,0.35,0.35,0,0,1-.53.25c-3.16-.93-6.34-1.83-9.5-2.75a1.09,1.09,0,0,0-.65,0c-3.17.92-6.34,1.82-9.5,2.75-0.27.08-.4,0.06-0.5-0.21A31.24,31.24,0,0,1,.66,47.56,0.36,0.36,0,0,1,1,47L10.1,44.4Z"/><path class="cls-1" d="M21.8,53.74a25.32,25.32,0,0,1-2.87,4.36,0.4,0.4,0,0,1-.52.08l-5.65-1.63a1.28,1.28,0,0,0-.75,0c-1.87.55-3.74,1.07-5.6,1.63a0.54,0.54,0,0,1-.69-0.22,28.2,28.2,0,0,1-2.59-3.89C3,53.79,3,53.69,3.3,53.6l8.8-2.53a0.87,0.87,0,0,1,.51,0l8.94,2.59Z"/><path class="cls-1" d="M79.73,45.51c0-1.73,0-3.45,0-5.18,0-.32.09-0.4,0.4-0.39q3.75,0,7.5,0c0.34,0,.46.09,0.42,0.43A2.37,2.37,0,0,1,88,41.62a1.94,1.94,0,0,1-1.25.08c-1.53,0-3.06,0-4.6,0-0.33,0-.45.08-0.44,0.43a19.35,19.35,0,0,1,0,2c0,0.43.13,0.49,0.52,0.49,1.56,0,3.13,0,4.69,0,0.33,0,.47.06,0.43,0.42a2.83,2.83,0,0,1-.09,1.26,1.84,1.84,0,0,1-1.25.09q-2,0-3.92,0c-0.29,0-.39.07-0.39,0.38,0,0.76,0,1.52,0,2.27,0,0.36.12,0.42,0.44,0.42,1.85,0,3.71,0,5.56,0,0.37,0,.48.11,0.45,0.46A2.67,2.67,0,0,1,88,51.08a1.8,1.8,0,0,1-1.24.09c-2.21,0-4.42,0-6.63,0-0.36,0-.46-0.08-0.45-0.45C79.75,49,79.73,47.25,79.73,45.51Z"/><path class="cls-1" d="M7.33,59.63L12,58.28a1.19,1.19,0,0,1,.7,0l4.76,1.39a0.39,0.39,0,0,1-.21.31,24.15,24.15,0,0,1-4.12,3.26,1.2,1.2,0,0,1-1.43,0,24.23,24.23,0,0,1-4.16-3.29A0.41,0.41,0,0,1,7.33,59.63Z"/><path class="cls-1" d="M87.67,59.12c0-1.11,0-2.23,0-3.34A0.28,0.28,0,0,1,88,55.43q2.32,0,4.64,0a0.28,0.28,0,0,1,.34.36c0,0.24,0,.42-0.34.42-1.23,0-2.45,0-3.68,0-0.42,0-.52.12-0.49,0.51s0,1.06,0,1.6a0.28,0.28,0,0,0,.35.35c1.1,0,2.19,0,3.29,0,0.35,0,.37.14,0.39,0.42s-0.14.35-.4,0.35c-1.08,0-2.16,0-3.24,0-0.33,0-.41.1-0.39,0.41,0,0.61,0,1.23,0,1.84C88.47,62,88.6,62,88.9,62c1.24,0,2.48,0,3.72,0,0.3,0,.43.05,0.43,0.39s-0.14.39-.43,0.38c-1.52,0-3,0-4.55,0-0.35,0-.42-0.1-0.42-0.43C87.68,61.28,87.67,60.2,87.67,59.12Z"/><path class="cls-1" d="M49.39,62.88a4.3,4.3,0,0,1-2.68-.94c-0.18-.14-0.33-0.26-0.08-0.47s0.24-.48.58-0.17a3.26,3.26,0,0,0,2.5.82,1.77,1.77,0,0,0,.95-0.32,1.1,1.1,0,0,0-.11-1.88,6.33,6.33,0,0,0-1.61-.49A5.32,5.32,0,0,1,47.76,59a1.85,1.85,0,0,1-.27-3.16,3.62,3.62,0,0,1,4.11.28c0.28,0.23-.07.34-0.13,0.5s-0.16.29-.39,0.12a3.06,3.06,0,0,0-2.12-.64,1.65,1.65,0,0,0-1,.36,1.06,1.06,0,0,0,.13,1.75,5,5,0,0,0,1.5.5,5.92,5.92,0,0,1,1.28.42A1.72,1.72,0,0,1,52,60.7a1.9,1.9,0,0,1-1,1.8A3,3,0,0,1,49.39,62.88Z"/><path class="cls-1" d="M42.81,62.88a4.31,4.31,0,0,1-2.68-.95c-0.18-.14-0.32-0.26-0.07-0.47s0.24-.47.58-0.16a3.26,3.26,0,0,0,2.5.82A1.86,1.86,0,0,0,44,61.87a1.11,1.11,0,0,0,.59-1,1,1,0,0,0-.63-0.95,7,7,0,0,0-1.57-.47A5.16,5.16,0,0,1,41.13,59a1.85,1.85,0,0,1-.26-3.11,3.61,3.61,0,0,1,4.14.25c0.27,0.23-.07.34-0.14,0.5s-0.16.29-.39,0.11a3.06,3.06,0,0,0-2.13-.64,1.65,1.65,0,0,0-1,.36,1.06,1.06,0,0,0,.13,1.75,5,5,0,0,0,1.5.5,5.89,5.89,0,0,1,1.28.42,1.72,1.72,0,0,1,1.08,1.58,1.9,1.9,0,0,1-1,1.8A3,3,0,0,1,42.81,62.88Z"/><path class="cls-1" d="M97.16,62.88a4.29,4.29,0,0,1-2.67-1c-0.17-.14-0.3-0.25-0.06-0.44s0.22-.51.58-0.19a3.29,3.29,0,0,0,2.5.83,1.77,1.77,0,0,0,1-.34,1.1,1.1,0,0,0-.12-1.86,6.14,6.14,0,0,0-1.61-.5A6,6,0,0,1,95.62,59a1.7,1.7,0,0,1-1.08-1.53,1.86,1.86,0,0,1,.94-1.78,3.74,3.74,0,0,1,3.91.38c0.26,0.24,0,.33-0.09.46s-0.13.4-.41,0.18a3.09,3.09,0,0,0-2.17-.64,1.66,1.66,0,0,0-.9.32,1.06,1.06,0,0,0,.1,1.81,5.25,5.25,0,0,0,1.51.49,5.67,5.67,0,0,1,1.28.42,1.71,1.71,0,0,1,1.06,1.55,1.9,1.9,0,0,1-.93,1.79A2.94,2.94,0,0,1,97.16,62.88Z"/><path class="cls-1" d="M66.06,55.32a3.86,3.86,0,0,1,2.62,1c0.14,0.12.31,0.25,0.06,0.4s-0.23.58-.62,0.24a3,3,0,0,0-2.55-.77,2.79,2.79,0,0,0-2.32,2.29,3.06,3.06,0,0,0,1.21,3.19,2.93,2.93,0,0,0,3.28,0,2.26,2.26,0,0,0,.42-0.33c0.3-.33.43,0,0.61,0.14s0.05,0.32-.08.44a3.91,3.91,0,0,1-4.45.61,3.79,3.79,0,0,1-1.9-3.87,3.66,3.66,0,0,1,3.09-3.21C65.64,55.34,65.86,55.34,66.06,55.32Z"/><path class="cls-1" d="M82.83,59.46c0-.93,0-1.87,0-2.8,0-.34-0.05-0.48-0.44-0.46-0.58,0-1.16,0-1.74,0-0.33,0-.32-0.17-0.31-0.39s0-.4.31-0.4q2.59,0,5.17,0c0.34,0,.3.19,0.3,0.4s0,0.41-.3.39c-0.55,0-1.1,0-1.64,0s-0.54.07-.54,0.52c0,1.87,0,3.74,0,5.61a0.47,0.47,0,0,1-.71.46c-0.18-.07-0.11-0.21-0.11-0.33C82.83,61.46,82.83,60.46,82.83,59.46Z"/><path class="cls-2" d="M70.49,59.06c0-1.08,0-2.16,0-3.23,0-.38.16-0.39,0.45-0.4s0.39,0.11.39,0.41q0,3.28,0,6.57c0,0.31-.07.41-0.39,0.4s-0.46,0-.45-0.41C70.5,61.28,70.49,60.17,70.49,59.06Z"/><path class="cls-1" d="M51.7,47.32c-0.25-.34-0.22-0.45.18-0.6a3.45,3.45,0,0,0-.21-6.5A4.45,4.45,0,0,0,50.3,40l-5.08,0c-0.25,0-.33.06-0.33,0.32q0,5.29,0,10.59c0,0.24,0,.35.31,0.33a12.43,12.43,0,0,1,1.3,0c0.29,0,.35-0.09.34-0.36,0-1,0-2.1,0-3.14,0-.35.06-0.49,0.44-0.47a15.14,15.14,0,0,0,1.64,0,0.64,0.64,0,0,1,.63.33c0.76,1.12,1.55,2.22,2.32,3.33a0.49,0.49,0,0,0,.44.31c0.67,0,1.35,0,2.12,0C53.49,49.83,52.61,48.56,51.7,47.32Zm-4.58-1.85a0.23,0.23,0,0,1-.27-0.28c0-.52,0-1,0-1.55s0-1,0-1.55a0.27,0.27,0,0,1,.33-0.33c1,0,2,0,3,0a1.78,1.78,0,0,1,1.72,2.44,1.9,1.9,0,0,1-1.83,1.2C49.12,45.5,48.12,45.45,47.12,45.47Z"/><path class="cls-1" d="M99.72,50.76c-0.8-1.13-1.58-2.28-2.41-3.39-0.3-.4-0.25-0.51.21-0.69a3.45,3.45,0,0,0-.26-6.47,5.45,5.45,0,0,0-1.76-.27c-1.53,0-3.06,0-4.59,0-0.36,0-.45.09-0.45,0.45,0,3.09,0,6.19,0,9.28,0,0.49-.22,1.15.1,1.43a3.14,3.14,0,0,0,1.4.08c0.41,0,.47-0.13.46-0.49,0-1,0-2.06,0-3.09,0-.29.07-0.4,0.38-0.39,0.56,0,1.13,0,1.69,0a0.67,0.67,0,0,1,.66.36c0.76,1.12,1.55,2.22,2.32,3.33a0.53,0.53,0,0,0,.5.28c0.64,0,1.29,0,2,0Zm-4.1-5.31c-1,.05-1.93,0-2.9,0a0.25,0.25,0,0,1-.3-0.3c0-.52,0-1,0-1.55s0-1,0-1.55a0.25,0.25,0,0,1,.3-0.31c1,0,2,0,3,0a1.79,1.79,0,0,1,1.75,2.46A1.94,1.94,0,0,1,95.62,45.44Z"/><path class="cls-1" d="M37.61,40a48.87,48.87,0,0,0-5.07-.1c-0.31,0-.22.21-0.23,0.36q0,2.61,0,5.22t0,5.27c0,0.17-.09.4,0.25,0.39a48.5,48.5,0,0,0,5.07-.11A5.57,5.57,0,0,0,37.61,40ZM40.34,46a3.58,3.58,0,0,1-3.46,3.38c-0.76,0-1.51,0-2.27,0-0.3,0-.34-0.12-0.34-0.37,0-1.14,0-2.29,0-3.43s0-2.26,0-3.38c0-.3.06-0.44,0.39-0.42a17.57,17.57,0,0,1,2.84.12A3.66,3.66,0,0,1,40.34,46Z"/><path class="cls-1" d="M66.91,50.66c-1.38-3.17-2.81-6.32-4.11-9.52-0.41-1-.9-1.5-2-1.31a0.64,0.64,0,0,0-.6.41c-0.84,2-1.7,3.93-2.55,5.89l-2.2,5c0.63,0,1.18,0,1.73,0a0.38,0.38,0,0,0,.42-0.29c0.27-.69.59-1.36,0.85-2a0.53,0.53,0,0,1,.61-0.39q2.2,0,4.4,0a0.55,0.55,0,0,1,.63.41c0.25,0.68.55,1.34,0.84,2,0.05,0.12.06,0.3,0.25,0.3h1.94Zm-7.3-4c-0.17,0-.25,0-0.18-0.22l1.83-4.26,1.84,4.3a1.08,1.08,0,0,1,0,.19H59.61Z"/><path class="cls-1" d="M74.82,40.08a5.23,5.23,0,0,0-1.2-.14c-1.37,0-2.74,0-4.11,0-0.39,0-.44.12-0.44,0.46,0,1.71,0,3.42,0,5.12,0,1.37,0,2.74,0,4.11a2.65,2.65,0,0,0,.08,1.44c0.32,0.32,1,.06,1.53.11,0.27,0,.36-0.07.35-0.34,0-.93,0-1.87,0-2.8,0-.37.08-0.5,0.47-0.49a14.19,14.19,0,0,0,3.13-.14,3.67,3.67,0,0,0,3.14-3.67A3.56,3.56,0,0,0,74.82,40.08Zm0.83,4.34a2.06,2.06,0,0,1-2,1.3c-0.79.06-1.58,0-2.37,0A0.23,0.23,0,0,1,71,45.47c0-.58,0-1.16,0-1.74s0-1.1,0-1.64a0.27,0.27,0,0,1,.33-0.33c0.82,0,1.64,0,2.46,0A1.92,1.92,0,0,1,75.65,44.43Z"/><path class="cls-1" d="M57.14,55.33a3.77,3.77,0,1,0,3.72,3.76A3.72,3.72,0,0,0,57.14,55.33Zm0,6.77a2.92,2.92,0,0,1-2.93-3,2.88,2.88,0,0,1,2.87-3,2.92,2.92,0,0,1,2.93,3A2.88,2.88,0,0,1,57.12,62.1Z"/><path class="cls-1" d="M80.16,62.56c-1-2.31-2.09-4.63-3.12-6.95a0.47,0.47,0,0,0-.52-0.29,0.48,0.48,0,0,0-.55.32c-1,2.28-2,4.54-3.06,6.82a0.3,0.3,0,0,0-.07.3c0.78,0,.78,0,1.09-0.66,0.14-.31.29-0.61,0.4-0.93a0.47,0.47,0,0,1,.54-0.36c0.72,0,1.45,0,2.17,0a3,3,0,0,1,1.41.08,3,3,0,0,1,.64,1.26c0.3,0.68.3,0.68,1.13,0.57A1.51,1.51,0,0,0,80.16,62.56Zm-5.33-2.5,0.83-1.86,0.84-1.89,1.67,3.75H74.84Z"/><path class="cls-1" d="M39,62.66l-3.2-7.12a0.33,0.33,0,0,0-.33-0.21,0.65,0.65,0,0,0-.77.45c-1,2.32-2.07,4.63-3.13,7,0.84,0.05.84,0.05,1.15-.64,0.14-.31.29-0.61,0.4-0.93a0.5,0.5,0,0,1,.58-0.36,12.93,12.93,0,0,0,2.17,0,1.57,1.57,0,0,1,2,1.3c0.21,0.75.3,0.73,1.11,0.64A0.21,0.21,0,0,0,39,62.66ZM33.62,60l1.66-3.73L36.94,60H33.62Z"/></svg>