<svg id="Layer_1" data-name="Layer 1" xmlns="http://www.w3.org/2000/svg" viewBox="0 0 100 100.01"><defs><style>.cls-1{fill:#3e3e3e;}</style></defs><title>td</title><path class="cls-1" d="M8.83,69.15v7.13H7.45V69.15H3.68V68h8.94v1.12H8.83Z"/><path class="cls-1" d="M15.61,76.28H14.33V69.52h1.28v6.76Z"/><path class="cls-1" d="M19.73,70.77l0,0.94v4.57H18.71V69.5h1.06l3.37,4.4,3.1-4.4h1.18v6.78H26.24V71.71a5.36,5.36,0,0,1,.08-0.94,3.77,3.77,0,0,1-.45.94l-2.61,3.5H22.93l-2.7-3.47A3.1,3.1,0,0,1,19.73,70.77Z"/><path class="cls-1" d="M41.67,68a6,6,0,0,1,3.17.64,3.51,3.51,0,0,1,1.25,1.42,4.44,4.44,0,0,1,.46,2,3.92,3.92,0,0,1-1.71,3.53,6,6,0,0,1-3.17.64H37.13V68h4.54Zm-0.19,1.1h-3v6h3a4.58,4.58,0,0,0,2.75-.64,2.81,2.81,0,0,0,.91-2.39,2.73,2.73,0,0,0-.91-2.33A4.62,4.62,0,0,0,41.48,69.14Z"/><path class="cls-1" d="M49.47,76.28V69.5h5.46a1.21,1.21,0,0,1,1.43,1.31v1.52a1.21,1.21,0,0,1-1.43,1.29H54l3,2.65H55.32l-2.71-2.65H50.75v2.65H49.47Zm4.89-5.77H50.75v2.17h3.61A0.67,0.67,0,0,0,55,72.45,1,1,0,0,0,55.08,72V71.19A0.62,0.62,0,0,0,54.36,70.51Z"/><path class="cls-1" d="M58.17,76.28l3.92-6.78h1.17l4,6.78H65.88L65,74.7H60.31l-0.86,1.58H58.17Zm2.69-2.56h3.6L62.65,70.5Z"/><path class="cls-1" d="M69.3,76.28V69.5H75a1.24,1.24,0,0,1,1.48,1.31v1.52A1.23,1.23,0,0,1,75,73.63H70.58v2.65H69.3Zm5.15-5.77H70.58v2.11h3.87A0.62,0.62,0,0,0,75.21,72V71.14A0.62,0.62,0,0,0,74.45,70.51Z"/><path class="cls-1" d="M79,76.28V69.5h6.83v1H80.26v1.74h3.34v1H80.26v2h5.61v1H79Z"/><path class="cls-1" d="M88.27,76.28V69.5h5.46a1.21,1.21,0,0,1,1.43,1.31v1.52a1.21,1.21,0,0,1-1.43,1.29h-0.9l3,2.65H94.12l-2.71-2.65H89.55v2.65H88.27Zm4.89-5.77H89.55v2.17h3.61a0.67,0.67,0,0,0,.64-0.24A0.94,0.94,0,0,0,93.89,72V71.19A0.62,0.62,0,0,0,93.17,70.51Z"/><path class="cls-1" d="M12.51,19.13v39.7H87V19.13H12.51Zm32,11H33v21H28.77v-21H17.27V26.85H44.52v3.29ZM77,49.23q-3,1.88-9.65,1.88H53.53V26.85H67.38q6.63,0,9.65,1.88a10.47,10.47,0,0,1,3.83,4.18,12.68,12.68,0,0,1,1.39,5.92Q82.25,45.94,77,49.23Z"/><path class="cls-1" d="M75.18,32q-2.59-1.88-8.38-1.89H57.73V47.73h9.07q5.85,0,8.38-1.89,2.78-2,2.78-7Q78,34,75.18,32Z"/></svg>