<svg id="Layer_1" data-name="Layer 1" xmlns="http://www.w3.org/2000/svg" viewBox="0 0 598.1 598.1"><defs><style>.cls-1,.cls-3{fill:none;stroke:#231f20;stroke-miterlimit:10;}.cls-1{stroke-width:6px;}.cls-2{fill:#231f20;}.cls-3{stroke-width:4.56px;}</style></defs><title>web_icons</title><polygon class="cls-1" points="40.06 149.53 299.05 0 558.03 149.53 558.03 448.57 299.05 598.1 40.06 448.57 40.06 149.53"/><path class="cls-1" d="M144.56,275.14s0.47-9.09.78-12.17c0.1-.78.14-1.59,0.31-2.61l0.51-3.29c0.2-1.18.36-2.49,0.63-3.81l0.9-4.21A142.32,142.32,0,0,1,154,228a152.54,152.54,0,0,1,12.9-25.65,158.3,158.3,0,0,1,21.36-26.71,156.23,156.23,0,0,1,14.09-12.44c2.48-2,5.18-3.87,7.84-5.79l4.15-2.71c0.7-.45,1.39-0.92,2.1-1.35l2.16-1.28a147.73,147.73,0,0,1,18.18-9.29,149.85,149.85,0,0,1,19.76-7l5.13-1.35c1.72-.43,3.46-0.77,5.2-1.15l2.61-.56,2.64-.45c1.76-.27,3.52-0.6,5.29-0.83a178.43,178.43,0,0,1,21.43-1.5h1l0.62,0,1.23,0,2.46,0.07,2.49,0.07,2.8,0.19c1.85,0.14,3.76.23,5.55,0.43l5.33,0.62c1.78,0.18,3.53.54,5.29,0.8s3.52,0.58,5.25,1l5.2,1.13,5.13,1.35A147.37,147.37,0,0,1,361,142.61l2.38,1,2.33,1.1c1.55,0.74,3.11,1.43,4.62,2.22,3,1.57,6,3.15,8.87,4.9s5.65,3.53,8.41,5.31c1.35,0.93,2.67,1.89,4,2.84l2,1.43,1.9,1.5,3.75,3,3.58,3.09c1.2,1,2.34,2.07,3.46,3.14s2.24,2.11,3.33,3.18A158.81,158.81,0,0,1,431,201.95a152,152,0,0,1,13,25.59,142.64,142.64,0,0,1,6.4,21l0.91,4.2c0.28,1.32.43,2.58,0.63,3.73,0.37,2.32.69,4.28,0.84,5.9,0.34,3.21.51,12.74,0.51,12.74l-12.45-1.67a55.84,55.84,0,0,0-1.29-8.37c-0.38-1.42-1-3.15-1.65-5.17s-1.51-4.32-2.48-6.87a153.82,153.82,0,0,0-21.93-38.81,154.58,154.58,0,0,0-20.26-21.3,149.76,149.76,0,0,0-12.65-9.73L378.84,182l-1.74-1.1-3.48-2.23c-2.4-1.38-4.77-2.86-7.29-4.12a142.8,142.8,0,0,0-32.17-12.4,145.51,145.51,0,0,0-17.41-3.24l-4.43-.49c-1.47-.15-2.84-0.19-4.26-0.3l-2.12-.15-2.44-.05-4.58-.08a142.24,142.24,0,0,0-35.22,4.46c-1.44.31-2.82,0.79-4.23,1.18s-2.81.8-4.18,1.28l-4.14,1.37-4.05,1.54a142.85,142.85,0,0,0-15.5,7.18l-1.86,1c-0.61.33-1.21,0.7-1.81,1.05L224.33,179l-3.47,2.24c-1.17.72-2.29,1.5-3.4,2.28a148.14,148.14,0,0,0-12.59,9.78,149.21,149.21,0,0,0-33.75,42.45,151.55,151.55,0,0,0-8.11,17.8l-1.34,3.64c-0.42,1.14-.74,2.18-1.08,3.17l-0.92,2.74c-0.29.82-.5,1.72-0.71,2.44-0.85,3-2.07,7.92-2.07,7.92Z"/><path class="cls-1" d="M147.81,342.78l13,1.74V273l-13,1.74a10.86,10.86,0,0,0-9.42,10.76V332A10.86,10.86,0,0,0,147.81,342.78Z"/><polygon class="cls-1" points="126 331.52 136.39 334.52 136.39 282.97 126 285.97 126 331.52"/><polygon class="cls-1" points="472.1 331.52 461.71 334.52 461.71 282.97 472.1 285.97 472.1 331.52"/><path class="cls-1" d="M450.73,342.72l-13.42,1.8V273l13,1.74a10.86,10.86,0,0,1,9.42,10.76v47A10.35,10.35,0,0,1,450.73,342.72Z"/><circle class="cls-1" cx="298.89" cy="314.52" r="19.58"/><path class="cls-2" d="M375.82,327.45l19.79-3.69L395,299.12l-20.09-2.72A77.6,77.6,0,0,0,369,279.74L383,265l-15-19.58-18,9.7a78.52,78.52,0,0,0-14.42-9.95l2.66-20.31-23.63-7-8.9,18.47c-2.27-.2-4.57-0.32-6.89-0.32a78.47,78.47,0,0,0-10.62.74l-9.79-18-23.25,8.19L258.75,247a78.67,78.67,0,0,0-14,10.66l-18.43-8.77-14,20.29,14.63,14a77.53,77.53,0,0,0-5.14,17L202,303.88l0.61,24.64,19.84,2.69a77.6,77.6,0,0,0,5.91,17l-13.72,14.48,15,19.58,17.52-9.42A78.53,78.53,0,0,0,262,383.16l-2.57,19.65,23.63,7L291.66,392c2.34,0.21,4.71.34,7.11,0.34a78.47,78.47,0,0,0,11-.79L319.27,409l23.25-8.19L339,381.2a78.69,78.69,0,0,0,14.28-11l17.4,7.56,14.62-19.27-14.48-13.85A77.57,77.57,0,0,0,375.82,327.45Zm-77.05,59.11a72.41,72.41,0,1,1,72.41-72.41A72.49,72.49,0,0,1,298.77,386.56Z"/><path class="cls-1" d="M147.81,342.78l25.33,65.67a63.54,63.54,0,0,0,45.5,39.16l43.11,9.58"/><rect class="cls-3" x="259.95" y="446.68" width="43.25" height="21.45" rx="8.73" ry="8.73"/></svg>