<svg id="Layer_1" data-name="Layer 1" xmlns="http://www.w3.org/2000/svg" viewBox="0 0 619.68 619.68"><defs><style>.cls-1{fill:#fff;}.cls-2,.cls-3{fill:none;}.cls-2{stroke:#fff;stroke-miterlimit:10;stroke-width:6px;}</style></defs><title>web_icons</title><rect class="cls-1" x="192.84" y="324.53" width="166" height="13"/><rect class="cls-1" x="192.84" y="290.53" width="166" height="13"/><rect class="cls-1" x="192.84" y="256.53" width="166" height="13"/><rect class="cls-1" x="192.84" y="222.53" width="166" height="13"/><rect class="cls-1" x="192.84" y="358.53" width="117" height="12"/><path class="cls-2" d="M586.37,403.53h-48c-11.48,0-20.79-11.65-20.79-23.14l1.57-64.57a4.27,4.27,0,0,0-2.52-3.95l-1.6-.2c-1.11-.37-2.14-0.8-3.35-1.11a53.7,53.7,0,0,0-7.57-1.37c-1.29-.12-2.58-0.25-3.85-0.28a31.78,31.78,0,0,0-3.72,0,17.94,17.94,0,0,0-6.6,1.9,21.84,21.84,0,0,0-2.64,1.63l-0.87.68c-6,8.3-14.64,13.49-24.21,13.49-18.2,0-32.95-18.76-32.95-41.91s14.75-41.9,32.95-41.9c9.57,0,18.19,5.2,24.21,13.5,0.27,0.22.56,0.45,0.87,0.68a21.79,21.79,0,0,0,2.63,1.63,17.92,17.92,0,0,0,6.6,1.91,31.55,31.55,0,0,0,3.72,0c1.27,0,2.54-.12,3.83-0.24a53.28,53.28,0,0,0,7.54-1.29c1.21-.31,2.31-0.58,3.42-0.94l1.6,0.12a3.42,3.42,0,0,0,2.52-3.3l-1.57-60.8c0-11.68,9.55-18.62,21.23-18.62H537.7c-42.59-38-101.62-62.59-166.86-62.59-7.5,0-14.91-.45-22.22.15a61.31,61.31,0,0,1-2.21-6.75c-0.34-1.25-.64-2.68-0.9-3.92a33.2,33.2,0,0,1-.6-3.76,18.17,18.17,0,0,1,.75-6.88,22.17,22.17,0,0,1,1.16-2.9c0.18-.34.35-0.67,0.52-1,7.14-7.36,10.78-16.75,9.13-26.18-3.13-17.92-24.15-29.23-46.95-25.25s-38.74,21.74-35.61,39.66c1.65,9.43,8.25,17,17.46,21.53l0.82,0.74a21.85,21.85,0,0,1,2.06,2.32,17.94,17.94,0,0,1,3,6.18,31.61,31.61,0,0,1,.67,3.66c0.18,1.26.31,2.54,0.41,3.83a54.13,54.13,0,0,1,0,7A243.63,243.63,0,0,0,201.24,176l0.1,0.56H142.84c-11.68,0-21.23,6.94-21.23,18.62l1.57,61.32c0,1.6-1,2.52-2.52,3l-1.6-.25c-1.11.37-2.21,0.57-3.42,0.88a53.26,53.26,0,0,1-7.54,1.26c-1.29.12-2.56,0.19-3.83,0.23a31.52,31.52,0,0,1-3.72,0,17.92,17.92,0,0,1-6.6-1.92A21.8,21.8,0,0,1,91.33,258c-0.31-.23-0.59-0.46-0.87-0.68-6-8.3-14.64-13.5-24.21-13.5-18.2,0-32.95,18.76-32.95,41.9s14.75,41.9,32.95,41.9c9.57,0,18.19-5.2,24.21-13.5l0.87-.68A21.84,21.84,0,0,1,94,311.83a17.94,17.94,0,0,1,6.6-1.91,31.76,31.76,0,0,1,3.72,0c1.27,0,2.56.14,3.85,0.27a53.68,53.68,0,0,1,7.57,1.34c1.21,0.31,2.24.68,3.35,1l1.6,0.07a3.91,3.91,0,0,1,2.52,3.69l-1.57,65.09c0,11.48,9.31,23.14,20.79,23.14h13.9c7.8,15,17.65,28.49,29.24,41.51,0,0-26.41,64.87-60.91,78.83,0,0,60,15.8,168.61-11.75a61.19,61.19,0,0,1-7.81-2.66A267.22,267.22,0,0,0,435,516.64c0.09,0.2.18,0.38,0.26,0.59,0.49,1.2.94,2.38,1.34,3.59a31.57,31.57,0,0,1,1,3.56,17.91,17.91,0,0,1,.08,6.87,21.75,21.75,0,0,1-.8,3c-0.13.36-.27,0.7-0.4,1-6.2,8.16-8.68,17.92-5.9,27.08,5.27,17.42,27.5,26.1,49.65,19.4s35.83-26.26,30.56-43.67c-2.77-9.16-10.25-15.91-19.93-19.26l-0.9-.63a21.81,21.81,0,0,1-2.33-2.05,17.93,17.93,0,0,1-3.74-5.77,31.82,31.82,0,0,1-1.11-3.56c-0.33-1.22-.61-2.49-0.87-3.76-0.19-1-.34-0.39-0.47-1.36C528,479.85,565.16,445.53,586.37,403.53Z"/><rect class="cls-3" width="619.68" height="619.68"/></svg>