<svg id="Layer_1" data-name="Layer 1" xmlns="http://www.w3.org/2000/svg" viewBox="0 0 598.1 598.1"><defs><style>.cls-1{fill:none;stroke:#231f20;stroke-miterlimit:10;stroke-width:6px;}.cls-2{fill:#231f20;}</style></defs><title>web_icons</title><polygon class="cls-1" points="40.06 149.53 299.05 0 558.03 149.53 558.03 448.57 299.05 598.1 40.06 448.57 40.06 149.53"/><path class="cls-2" d="M154.73,222.35c0.23,0.4.73,0.91,1,1.54l0.57,1.09,0.52,1.13a25.42,25.42,0,0,1,1,2.5c0.14,0.41.31,0.85,0.41,1.24a12.31,12.31,0,0,1,.31,1.2,10.3,10.3,0,0,1,.29,2.22,6.07,6.07,0,0,1-.23,1.83,4.35,4.35,0,0,1-.74,1.38,4.56,4.56,0,0,1-2.58,1.6,7.47,7.47,0,0,1-1.73.19c-0.3,0-.63,0-0.94-0.05a8.13,8.13,0,0,1-1-.12,9.5,9.5,0,0,1-1-.19c-0.31-.06-0.63-0.15-0.94-0.25s-0.6-.19-0.9-0.3l-0.8-.29c-0.48-.17-1-0.41-1.24-0.52l-0.49-.23-1.23-1.23L124.3,256l30.64,30.64,20.89-20.89-1.56-1.56-0.23-.49c-0.11-.28-0.35-0.76-0.52-1.24l-0.29-.8c-0.11-.3-0.22-0.61-0.3-0.9s-0.18-.63-0.25-0.94a9.5,9.5,0,0,1-.19-1,8.2,8.2,0,0,1-.12-1c0-.31-0.06-0.65-0.05-0.94a7.43,7.43,0,0,1,.19-1.73,4.56,4.56,0,0,1,1.6-2.58,4.34,4.34,0,0,1,1.38-.74,6.07,6.07,0,0,1,1.83-.23,10.33,10.33,0,0,1,2.22.29c0.37,0.07.8,0.19,1.2,0.31s0.83,0.26,1.24.41a25.48,25.48,0,0,1,2.5,1l1.13,0.52,1.09,0.57c0.63,0.31,1.14.82,1.54,1l0.07,0-33.62-33.62Z"/><path class="cls-2" d="M333.89,336l-19.72-19.72,35.2-35.2c7.39-7.39,17-11.67,25.64-11.48l28.47,0.62c4.86,0.11,10.2-2.29,14.33-6.42l56-56-2.31-20.19-45.41,45.41-51.64-5.14-5.14-51.64,45.41-45.41-20.19-2.31-56,56c-4.1,4.1-6.49,9.39-6.42,14.22l0.4,28c0.12,8.64-4.15,18.13-11.49,25.46l-35.44,35.44-63-63,19-19a64.18,64.18,0,0,1-12.34-22.49c-3-10.53,5.92-31.9,15.67-39.86,1.29-1.06,7-3.86,8.58-3.73l10.86,0c-5-5-24-5-29.06,0l-29.91,29.91-19,19L184.88,187l-13.23,13.23,1.39,1.39-19.5,19.5,0.7,0.7,0.43,0.43h0L188.3,255.9h0l0.43,0.43h0l1,1,19.5-19.5,63,63L157,416.25c-7.07,7.07-8.59,17-3.4,22.21l9.84,9.84c5.19,5.19,15.14,3.67,22.21-3.4L300.95,329.55l19.72,19.72c-3.92,5.83-3.44,13.27,1.31,18L424.42,469.74l8-8,13.63-13.63,7.57-7.57L351.21,338C346.47,333.29,339.72,332.12,333.89,336Zm-143.47,82.7c-2.56,2.56-6.15,3.11-8,1.23s-1.33-5.48,1.23-8,6.15-3.11,8-1.23S193,416.18,190.42,418.74Z"/></svg>