<svg id="Layer_1" data-name="Layer 1" xmlns="http://www.w3.org/2000/svg" viewBox="0 0 619.68 619.68"><defs><style>.cls-1,.cls-3{fill:none;}.cls-1{stroke:#fff;stroke-miterlimit:10;stroke-width:6px;}.cls-2{fill:#fff;}</style></defs><title>web_icons</title><path class="cls-1" d="M605,456.92H389.84v0.73c0,8.35-7.67,14.27-16,14.27H246.25c-8.35,0-15.41-5.92-15.41-14.27v-0.73H15.08A15.34,15.34,0,0,0-.16,472v5.14c0,8.21,7,14.81,15.24,14.81H605a14.8,14.8,0,0,0,14.85-14.81V472A15,15,0,0,0,605,456.92Z"/><path class="cls-1" d="M538.63,126.92H81.43c-11.58,0-22.59,8.17-22.59,19.75V455.92h499V146.67C557.84,135.09,550.21,126.92,538.63,126.92Zm1.21,313h-464v-295h464v295Z"/><path class="cls-2" d="M164.72,288.42L230,271.75A69.5,69.5,0,0,0,125,234Z"/><path class="cls-2" d="M214.61,338.89a69.6,69.6,0,0,0,16.89-61.31l-62.16,15.87Z"/><path class="cls-2" d="M161.36,294l-0.3-.35-40.93-56.06a69.48,69.48,0,1,0,90.22,105.58Z"/><rect class="cls-2" x="383.84" y="242.92" width="7" height="255" transform="translate(757.76 -16.92) rotate(90)"/><polygon class="cls-2" points="266.24 348.53 259.73 342.77 305.44 291.12 353.94 318.62 401.15 265.29 445.73 271.88 478.24 232.7 484.93 238.25 449.3 281.19 404.53 274.58 355.78 329.66 307.29 302.16 266.24 348.53"/><rect class="cls-2" x="259.84" y="208.92" width="7" height="161"/><rect class="cls-3" width="619.68" height="619.68"/></svg>