<svg id="Layer_1" data-name="Layer 1" xmlns="http://www.w3.org/2000/svg" viewBox="0 0 619.68 619.68"><defs><style>.cls-1,.cls-3{fill:none;}.cls-1{stroke:#fff;stroke-miterlimit:10;stroke-width:6px;}.cls-2{fill:#fff;}</style></defs><title>web_icons</title><rect class="cls-1" x="141.84" y="56.84" width="336" height="506" rx="35.55" ry="35.55"/><rect class="cls-1" x="162.84" y="101.84" width="294" height="417"/><rect class="cls-2" x="301.84" y="532.84" width="16" height="16" rx="7.79" ry="7.79"/><rect class="cls-1" x="195.84" y="183.84" width="57" height="58"/><rect class="cls-1" x="195.84" y="288.84" width="57" height="58"/><rect class="cls-1" x="195.84" y="393.84" width="57" height="58"/><rect class="cls-2" x="290.84" y="183.84" width="132" height="13"/><rect class="cls-2" x="290.84" y="207.84" width="93" height="12"/><rect class="cls-2" x="290.84" y="287.84" width="132" height="13"/><rect class="cls-2" x="290.84" y="311.84" width="93" height="12"/><rect class="cls-2" x="290.84" y="391.84" width="132" height="12"/><rect class="cls-2" x="290.84" y="414.84" width="93" height="13"/><circle class="cls-2" cx="310" cy="82.03" r="4.93"/><polyline class="cls-1" points="209.91 201 227.37 224.51 300.56 137.63"/><rect class="cls-3" width="619.68" height="619.68"/></svg>