<svg id="Layer_1" data-name="Layer 1" xmlns="http://www.w3.org/2000/svg" viewBox="0 0 619.68 619.68"><defs><style>.cls-1,.cls-4,.cls-5{fill:none;}.cls-1,.cls-3,.cls-4{stroke:#fff;stroke-miterlimit:10;stroke-width:6px;}.cls-2,.cls-3{fill:#fff;}.cls-4{stroke-linecap:round;stroke-dasharray:8.55;}</style></defs><title>web_icons</title><path class="cls-1" d="M193.64,340c0-25.66-20.44-46.46-45.64-46.46s-45.64,20.8-45.64,46.46c0,11.21,13.29,34.88,14.24,36.19s2,2.67,2.91,4a34.55,34.55,0,0,1,2.49,4.18,22.88,22.88,0,0,1,1.57,4.18c0.42,1.38.76,2.74,1.05,4a48.65,48.65,0,0,1,1.08,7.18,46,46,0,0,1,0,6.08c-0.11,1.23-.29,2.93-0.29,2.93h45.22s-0.18-1.7-.29-2.93a38.59,38.59,0,0,1,0-5.58,51.63,51.63,0,0,1,1.08-7.43c0.29-1.31.64-2.79,1.05-4.17a23.44,23.44,0,0,1,1.57-4.24,34.88,34.88,0,0,1,2.49-4.21c0.94-1.38,2-2.75,2.91-4.06S193.64,351.22,193.64,340Z"/><path class="cls-2" d="M121.31,411.11H174.7a0,0,0,0,1,0,0v0a8.78,8.78,0,0,1-8.78,8.78H130.1a8.78,8.78,0,0,1-8.78-8.78v0a0,0,0,0,1,0,0Z"/><rect class="cls-2" x="123.77" y="422.34" width="48.47" height="8.78" rx="4.39" ry="4.39"/><rect class="cls-2" x="123.77" y="434.18" width="48.47" height="8.78" rx="4.39" ry="4.39"/><rect class="cls-2" x="130.45" y="446.01" width="35.12" height="8.78" rx="3.82" ry="3.82"/><line class="cls-3" x1="138.53" y1="406.23" x2="134.26" y2="382.09"/><line class="cls-3" x1="157.48" y1="406.23" x2="161.75" y2="382.09"/><path class="cls-2" d="M136.4,381.17c0.58,0.45,1.15.9,1.68,1.38s1.08,0.94,1.6,1.43q1.56,1.46,3,3l-3.21.23q0.59-1.85,1.26-3.66c0.44-1.21.92-2.4,1.4-3.59s1-2.36,1.54-3.52,1.09-2.32,1.65-3.47l2.51-5.22,2.8,5.13a98.5,98.5,0,0,1,6.49,14.3l-3.21-.06c0.87-1,1.77-2.05,2.71-3,0.46-.5,1-1,1.45-1.47s1-1,1.54-1.41c-0.15.69-.32,1.37-0.52,2s-0.38,1.33-.61,2c-0.43,1.3-.9,2.57-1.4,3.83l-1.08,2.7-2.13-2.76a98.53,98.53,0,0,1-8.5-13.2l5.31-.1c-0.59,1.14-1.16,2.28-1.78,3.4s-1.25,2.24-1.89,3.35-1.33,2.2-2,3.28-1.42,2.16-2.17,3.21l-2,2.77-1.24-2.55q-0.92-1.9-1.74-3.87c-0.28-.65-0.52-1.33-0.78-2S136.61,381.87,136.4,381.17Z"/><rect class="cls-1" x="448.39" y="317.97" width="67.72" height="85.23" rx="10.62" ry="10.62"/><path class="cls-1" d="M506.48,404.21V460.7a5,5,0,0,1-5,5H463a5,5,0,0,1-5-5V403.46"/><path class="cls-1" d="M458,315.84V260.48a5,5,0,0,1,5-5h38.42a5,5,0,0,1,5,5v55.74"/><path class="cls-2" d="M470.42,372.23c0.4-.75.83-1.46,1.29-2.16s0.91-1.38,1.39-2q1.43-2,3-3.84c1-1.24,2.12-2.43,3.21-3.6s2.24-2.29,3.4-3.39l0.79-.75h1.2c1,0,2,0,3,0s2,0,3,.07c2,0.06,4,.22,6,0.43s4,0.52,6,.91c1,0.19,2,.42,3,0.68s2,0.54,3,.92c-1,.37-2,0.64-3,0.92s-2,.48-3,0.68q-3,.59-6,0.91c-2,.2-4,0.37-6,0.43-1,.05-2,0-3,0.07s-2,0-3,0l2-.76q-1.83,1.55-3.73,3c-1.28,1-2.58,1.92-3.92,2.81s-2.72,1.76-4.14,2.57c-0.71.41-1.43,0.8-2.18,1.16S471.21,371.91,470.42,372.23Z"/><path class="cls-4" d="M216.44,316.56a44,44,0,0,1,0,71.57"/><path class="cls-4" d="M236.37,294a74,74,0,0,1,3.21,114.13"/><path class="cls-4" d="M257.43,273.95a102.81,102.81,0,0,1,6.3,151"/><path class="cls-4" d="M424.51,316.56a44,44,0,0,0,0,71.57"/><path class="cls-4" d="M404.58,294a74,74,0,0,0-3.21,114.13"/><path class="cls-4" d="M383.52,273.95a102.81,102.81,0,0,0-6.3,151"/><path class="cls-1" d="M604.38,356.83a105.05,105.05,0,0,0-64.91-97.22c-13.21-36.15-52.42-62.36-98.83-62.36a118.52,118.52,0,0,0-35,5.23A148.79,148.79,0,0,0,120.83,251.7h-0.36C62.38,251.7,15.3,299.41,15.3,357.5a106.67,106.67,0,0,0,26.25,70.06C41.66,465.9,92.21,497,154.55,497,184,497,210.84,490,231,478.65c12,16.32,40.49,27.8,73.75,27.8,25.08,0,47.44-6.53,62.08-16.74,24.1,10.53,53.56,16.74,85.4,16.74,81.45,0,147.47-40.51,147.47-90.49a56.73,56.73,0,0,0-1.28-11.76C602.22,388.41,604.38,368.94,604.38,356.83Z"/><rect class="cls-5" width="619.68" height="619.68"/></svg>