<svg id="Layer_1" data-name="Layer 1" xmlns="http://www.w3.org/2000/svg" viewBox="0 0 619.68 619.68"><defs><style>.cls-1,.cls-3{fill:none;}.cls-1{stroke:#fff;stroke-miterlimit:10;stroke-width:6px;}.cls-2{fill:#fff;}</style></defs><title>web_icons</title><path class="cls-1" d="M272.76,233.25A63.68,63.68,0,1,0,184.42,325l3.69,3.55,41.24,39.72,45.82-45.72A63.53,63.53,0,0,0,272.76,233.25Z"/><path class="cls-1" d="M419.22,102.73a49.3,49.3,0,1,0-68.4,71l34.79,33.5,35.48-35.4A49.19,49.19,0,0,0,419.22,102.73Z"/><polyline class="cls-1" points="348.29 172.78 309.82 188.71 224.6 146.6 129.26 191.03 0 530.48 164.76 453.71 309.74 525.33 459.96 453.71 619.68 530.75 490.34 191.07 427.98 162.87"/><polyline class="cls-1" points="276.13 235.81 309.77 252.43 408.74 205.25 513.96 256.01"/><polyline class="cls-1" points="105.72 255.83 214.27 205.25 233.81 214.91"/><polyline class="cls-1" points="266.29 332.52 309.76 353.99 428.98 297.16 555.74 358.3"/><line class="cls-1" x1="63.94" y1="358.08" x2="171.56" y2="307.94"/><line class="cls-1" x1="210.62" y1="218.38" x2="224.6" y2="146.6"/><line class="cls-1" x1="164.76" y1="453.71" x2="188.82" y2="330.22"/><line class="cls-1" x1="309.83" y1="188.71" x2="309.74" y2="525.33"/><line class="cls-1" x1="459.96" y1="453.71" x2="408.01" y2="185.34"/><circle class="cls-2" cx="228.61" cy="273.27" r="22.66"/><circle class="cls-2" cx="385.04" cy="132.52" r="16.28"/><rect class="cls-3" width="619.68" height="619.68"/></svg>