<svg id="Layer_1" data-name="Layer 1" xmlns="http://www.w3.org/2000/svg" viewBox="0 0 619.68 619.68"><defs><style>.cls-1,.cls-3{fill:none;}.cls-1{stroke:#fff;stroke-miterlimit:10;stroke-width:5.84px;}.cls-2{fill:#fff;}</style></defs><title>web_icons</title><path class="cls-1" d="M493.25,468c-10.12,0-17.31,1.46-27.1,3.5"/><path class="cls-1" d="M466.15,471.46c-7.34,1-18.16,5-24.37,13.84l-11.89,32.38c-5.1,7.28-26.85,6.77-31.26-.94h0c-10.75-18.82-21.07-54.61-15-75.43l10.88-37.39a46.82,46.82,0,0,1,16.18-23.85h0a55.22,55.22,0,0,1,65.67-1.64h0c5.34,3.75,10.66,5.53,16.91,5.25"/><path class="cls-1" d="M492.57,468c10.12,0,17.31,1.46,27.1,3.5"/><path class="cls-1" d="M519.68,471.46c7.34,1,18.16,5,24.37,13.84l11.89,32.38c5.1,7.28,26.85,6.77,31.26-.94h0c10.75-18.82,21.07-54.61,15-75.43l-10.88-37.39a46.82,46.82,0,0,0-16.18-23.85h0a55.22,55.22,0,0,0-65.67-1.64h0c-5.34,3.75-10.66,5.53-16.91,5.25"/><polygon class="cls-2" points="442.84 418.84 432.84 418.84 432.84 405.84 422.84 405.84 422.84 418.84 409.84 418.84 409.84 428.84 422.84 428.84 422.84 439.84 432.84 439.84 432.84 428.84 442.84 428.84 442.84 418.84"/><circle class="cls-2" cx="551.62" cy="405.73" r="7.09"/><circle class="cls-2" cx="551.62" cy="440.17" r="7.09"/><circle class="cls-2" cx="568.84" cy="422.95" r="7.09"/><circle class="cls-2" cx="534.4" cy="422.95" r="7.09"/><path class="cls-1" d="M111.43,468c-10.12,0-17.31,1.46-27.1,3.5"/><path class="cls-1" d="M84.33,471.46c-7.34,1-18.16,5-24.37,13.84L48.07,517.67c-5.1,7.28-26.85,6.77-31.26-.94h0C6.06,497.91-4.26,462.12,1.8,441.3l10.88-37.39a46.82,46.82,0,0,1,16.18-23.85h0a55.22,55.22,0,0,1,65.67-1.64h0c5.34,3.75,10.66,5.53,16.91,5.25"/><path class="cls-1" d="M110.75,468c10.12,0,17.31,1.46,27.1,3.5"/><path class="cls-1" d="M137.86,471.46c7.34,1,18.16,5,24.37,13.84l11.89,32.38c5.1,7.28,26.85,6.77,31.26-.94h0c10.75-18.82,21.07-54.61,15-75.43l-10.88-37.39a46.82,46.82,0,0,0-16.18-23.85h0a55.22,55.22,0,0,0-65.67-1.64h0c-5.34,3.75-10.66,5.53-16.91,5.25"/><polygon class="cls-2" points="61.84 418.84 50.84 418.84 50.84 405.84 40.84 405.84 40.84 418.84 28.84 418.84 28.84 428.84 40.84 428.84 40.84 439.84 50.84 439.84 50.84 428.84 61.84 428.84 61.84 418.84"/><circle class="cls-2" cx="169.8" cy="405.73" r="7.09"/><circle class="cls-2" cx="169.8" cy="440.17" r="7.09"/><circle class="cls-2" cx="187.02" cy="422.95" r="7.09"/><circle class="cls-2" cx="152.58" cy="422.95" r="7.09"/><path class="cls-1" d="M302.55,171.85c-10.12,0-17.31,1.46-27.1,3.5"/><path class="cls-1" d="M275.44,175.35c-7.34,1-18.16,5-24.37,13.84l-11.89,32.38c-5.1,7.28-26.85,6.77-31.26-.94h0c-10.75-18.82-21.07-54.61-15-75.43l10.88-37.39A46.82,46.82,0,0,1,220,84h0a55.22,55.22,0,0,1,65.67-1.64h0c5.34,3.75,10.66,5.53,16.91,5.25"/><path class="cls-1" d="M301.87,171.85c10.12,0,17.31,1.46,27.1,3.5"/><path class="cls-1" d="M329,175.35c7.34,1,18.16,5,24.37,13.84l11.89,32.38c5.1,7.28,26.85,6.77,31.26-.94h0c10.75-18.82,21.07-54.61,15-75.43l-10.88-37.39A46.82,46.82,0,0,0,384.45,84h0a55.22,55.22,0,0,0-65.67-1.64h0c-5.34,3.75-10.66,5.53-16.91,5.25"/><polygon class="cls-2" points="252.84 122.84 241.84 122.84 241.84 109.84 231.84 109.84 231.84 122.84 218.84 122.84 218.84 132.84 231.84 132.84 231.84 142.84 241.84 142.84 241.84 132.84 252.84 132.84 252.84 122.84"/><circle class="cls-2" cx="360.92" cy="109.62" r="7.09"/><circle class="cls-2" cx="360.92" cy="144.06" r="7.09"/><circle class="cls-2" cx="378.14" cy="126.84" r="7.09"/><circle class="cls-2" cx="343.7" cy="126.84" r="7.09"/><path class="cls-1" d="M238.84,538.06a227.17,227.17,0,0,0,128.81,0"/><polygon class="cls-2" points="215.52 529.75 243.82 554.64 240.66 538.46 253.15 527.7 215.52 529.75"/><polygon class="cls-2" points="390.98 529.75 362.68 554.64 365.84 538.46 353.35 527.7 390.98 529.75"/><path class="cls-1" d="M130.52,329.56a203.87,203.87,0,0,1,45.59-81"/><polygon class="cls-2" points="125.07 353.72 146.89 322.99 131.12 327.81 119.13 316.51 125.07 353.72"/><polygon class="cls-2" points="193.94 231.38 178.98 265.98 174.93 250 159.04 245.61 193.94 231.38"/><path class="cls-1" d="M470,329.56a203.87,203.87,0,0,0-45.59-81"/><polygon class="cls-2" points="475.43 353.72 481.38 316.51 469.38 327.81 453.62 322.99 475.43 353.72"/><polygon class="cls-2" points="406.57 231.38 441.47 245.6 425.58 250 421.53 265.98 406.57 231.38"/><rect class="cls-3" width="619.68" height="619.68"/></svg>