<svg id="Layer_1" data-name="Layer 1" xmlns="http://www.w3.org/2000/svg" viewBox="0 0 598.1 598.1"><defs><style>.cls-1,.cls-2{fill:none;stroke:#231f20;stroke-miterlimit:10;}.cls-1{stroke-width:5.82px;}.cls-2{stroke-width:6px;}</style></defs><title>web_icons</title><path class="cls-1" d="M450.92,181.26l8.21-8.21,4.5,17L504,93.9l-96.11,40.35,17,4.5-8.54,8.54"/><path class="cls-2" d="M491,326.1h10.37l-8.81,14.5,96.5-40.24-96.5-38.43,8.82,16.18H491"/><path class="cls-1" d="M418.55,452.95l6.29,6.29-17,4.5L504,504.1,463.64,408l-4.5,17-6.48-6.48"/><path class="cls-2" d="M271,492.1v9.75L256.75,493l39.9,96.5L335.12,493,319,501.85V492.1"/><path class="cls-1" d="M145.79,417.82L138.65,425l-4.5-17L93.8,504.1l96.11-40.36-17-4.5,6.8-6.8"/><path class="cls-2" d="M108,278.1H96.73L105.55,262,9.05,301l96.5,39.87L96.74,326.1H108"/><path class="cls-1" d="M182,147.8l-9-9,17-4.5L93.8,93.9,134.16,190l4.5-17,8.85,8.85"/><path class="cls-2" d="M319,109.1V96.25l16.35,8.81L296.52,8.57l-40.07,96.5L271,96.25V109.1"/><polygon class="cls-1" points="317.2 249.06 347.79 278.97 348.33 321.75 318.5 352.34 275.77 352.82 245.18 322.91 244.64 280.13 274.48 249.54 317.2 249.06"/></svg>