<svg id="Layer_1" data-name="Layer 1" xmlns="http://www.w3.org/2000/svg" viewBox="0 0 598.1 598.1"><defs><style>.cls-1,.cls-3{fill:none;stroke:#231f20;stroke-miterlimit:10;}.cls-1{stroke-width:6px;}.cls-2{fill:#231f20;}.cls-3{stroke-width:5.82px;}</style></defs><title>web_icons</title><line class="cls-1" x1="299.1" y1="354.1" x2="299.1" y2="548.1"/><polygon class="cls-2" points="299.05 589.05 275.4 531.16 299.05 544.9 322.7 531.16 299.05 589.05"/><line class="cls-1" x1="299.1" y1="50.1" x2="299.1" y2="244.1"/><polygon class="cls-2" points="299.05 9.05 275.4 66.94 299.05 53.2 322.7 66.94 299.05 9.05"/><line class="cls-1" x1="244.1" y1="299.1" x2="50.1" y2="299.1"/><polygon class="cls-2" points="9.05 299.05 66.94 275.4 53.2 299.05 66.94 322.7 9.05 299.05"/><line class="cls-1" x1="548.1" y1="299.1" x2="354.1" y2="299.1"/><polygon class="cls-2" points="589.05 299.05 531.16 275.4 544.9 299.05 531.16 322.7 589.05 299.05"/><line class="cls-3" x1="260.31" y1="260.3" x2="123.04" y2="123.04"/><polygon class="cls-2" points="93.99 93.99 151.65 118.2 125.21 125.21 118.2 151.65 93.99 93.99"/><line class="cls-3" x1="475.06" y1="475.06" x2="337.8" y2="337.8"/><polygon class="cls-2" points="504.11 504.11 479.91 446.45 472.89 472.89 446.46 479.9 504.11 504.11"/><line class="cls-3" x1="260.31" y1="337.8" x2="123.04" y2="475.07"/><polygon class="cls-2" points="94 504.12 118.2 446.46 125.22 472.89 151.65 479.9 94 504.12"/><line class="cls-3" x1="475.07" y1="123.04" x2="337.79" y2="260.31"/><polygon class="cls-2" points="504.11 93.99 446.45 118.2 472.89 125.21 479.9 151.65 504.11 93.99"/><circle class="cls-2" cx="299.05" cy="299.05" r="29.13"/></svg>