<svg id="Layer_1" data-name="Layer 1" xmlns="http://www.w3.org/2000/svg" viewBox="0 0 619.68 619.68"><defs><style>.cls-1,.cls-4{fill:none;}.cls-1,.cls-3{stroke:#fff;stroke-miterlimit:10;}.cls-1{stroke-width:6px;}.cls-2,.cls-3{fill:#fff;}.cls-3{stroke-width:4.47px;}</style></defs><title>web_icons</title><path class="cls-1" d="M291.55,230c0.14,1.51.28,11.82,0.38,13.34,0.11,2,.22,3.94.25,5.89s0.08,4.28,0,6.14c0,0.35-.05,1.46-0.07,1.46H273.55c-17.39,0-32.71,13.24-32.71,30.63v35.37h152V287.47c0-17.39-11.38-30.63-28.77-30.63H345.51s-0.06-1.11-.08-1.46c-0.08-1.85,0-4,0-5.93s0.13-4,.24-6c0.1-1.52.22-11.91,0.36-13.42"/><path class="cls-1" d="M393.56,131.28a76.32,76.32,0,0,0-152.65,0A70.61,70.61,0,0,0,244.35,153l3.78,31.4a30.46,30.46,0,0,0,15.23,26.38L302,236.68a30.46,30.46,0,0,0,30.46,0l40.08-25.91a30.46,30.46,0,0,0,15.23-26.38l3-32.76A76.38,76.38,0,0,0,393.56,131.28Z"/><path class="cls-2" d="M244.35,153l6.56-16.76s-7.82-29,19-42.44,47.33,0,47.33,0,7.39-17.08,43.13-5.19,21.22,51,21.22,51l9.22,12-4.54,42.22s-9.14,18.53-9.14,46.91,31.27,78.64,31.27,78.64,17.87-48.94,17.87-78.64-15.64-25-23.45-46.91,7.82-33.34,7.82-63.91-20.09-95.49-95.49-95.49-87.93,65.14-87.93,87.93,19.26,48.2,19.26,48.2Z"/><path class="cls-1" d="M184.93,352.22a76.32,76.32,0,0,0-152.65,0,70.61,70.61,0,0,0,3.44,21.71l3.78,31.4a30.46,30.46,0,0,0,15.23,26.38l38.64,25.91a30.46,30.46,0,0,0,30.46,0l40.08-25.91a30.46,30.46,0,0,0,15.23-26.38l3-32.76A76.38,76.38,0,0,0,184.93,352.22Z"/><path class="cls-1" d="M498.47,451c0.14,1.51.28,11.82,0.38,13.34,0.11,2,.22,3.94.25,5.89s0.08,4.31,0,6.16c0,0.35-.05,1.49-0.07,1.49H480.47c-17.39,0-32.63,13.19-32.63,30.58v35.42h153V508.42c0-17.39-12.46-30.58-29.85-30.58H552.44s-0.06-1.14-.08-1.49c-0.08-1.85,0-4,0-5.94s0.13-4,.24-6c0.1-1.52.22-11.91,0.36-13.42"/><path class="cls-1" d="M600.48,352.22a76.32,76.32,0,0,0-152.65,0,70.61,70.61,0,0,0,3.44,21.71l3.78,31.4a30.46,30.46,0,0,0,15.23,26.38l38.64,25.91a30.46,30.46,0,0,0,30.46,0l40.08-25.91a30.46,30.46,0,0,0,15.23-26.38l3-32.76A76.38,76.38,0,0,0,600.48,352.22Z"/><path class="cls-3" d="M598.21,367.39l1.29-13.89a30.46,30.46,0,0,0-15.23-26.38l-64.09-16.31a30.47,30.47,0,0,0-30.46,0L464,327.13a30.46,30.46,0,0,0-15.23,26.38l1.79,14.89a70.48,70.48,0,0,1-2.77-19.53A76.32,76.32,0,1,1,598.21,367.39Z"/><path class="cls-1" d="M83.22,451c0.14,1.51.28,11.82,0.38,13.34,0.11,2,.22,3.94.25,5.89s0.08,4.31,0,6.16c0,0.35-.05,1.49-0.07,1.49H65.22c-17.39,0-32.38,13.19-32.38,30.58v35.42h152V508.42c0-17.39-11.71-30.58-29.1-30.58H137.18s-0.06-1.14-.08-1.49c-0.08-1.85,0-4,0-5.94s0.13-4,.24-6c0.1-1.52.22-11.91,0.36-13.42"/><path class="cls-2" d="M39.92,391.84h8.19l4.73-38.28V353.5a20.82,20.82,0,0,1,5.73-24.73l9.12-7.64a21,21,0,0,1,23.24-2.51l19.62,10.25,23-10.69A21.06,21.06,0,0,1,157,322.08l6.88,6.59a21.06,21.06,0,0,1,5.46,21.69l-0.4,1.62,4.47,39.86h8.75c3.35-42,3.15-36.1,5.47-45.79,1.6-6.7,10.54-64.6,10.54-64.6s-68.73-11.77-87.61-11.77-91.48,7.9-91.48,7.9l12.54,68.64S34.22,352.84,39.92,391.84Z"/><path class="cls-1" d="M230.82,572a283.9,283.9,0,0,0,171.58,0"/><polygon class="cls-2" points="206.96 563.19 235.67 589.13 232.65 572.47 245.62 561.6 206.96 563.19"/><polygon class="cls-2" points="426.26 563.19 397.55 589.13 400.57 572.48 387.61 561.6 426.26 563.19"/><path class="cls-1" d="M378.14,376.59a155.92,155.92,0,0,0,35.19,62.88"/><polygon class="cls-2" points="373.21 351.65 366.22 389.71 378.81 378.39 394.87 383.72 373.21 351.65"/><polygon class="cls-2" points="432.01 456.72 395.92 442.78 412.15 437.97 416.01 421.5 432.01 456.72"/><path class="cls-1" d="M248.09,376.59a155.92,155.92,0,0,1-35.19,62.88"/><polygon class="cls-2" points="253.01 351.65 231.35 383.72 247.42 378.39 260 389.71 253.01 351.65"/><polygon class="cls-2" points="194.21 456.72 210.21 421.5 214.07 437.97 230.3 442.78 194.21 456.72"/><rect class="cls-4" width="619.68" height="619.68"/></svg>