<svg id="Layer_1" data-name="Layer 1" xmlns="http://www.w3.org/2000/svg" viewBox="0 0 598.1 598.1"><defs><style>.cls-1{fill:none;stroke:#231f20;stroke-miterlimit:10;stroke-width:6px;}</style></defs><title>web_icons</title><polygon class="cls-1" points="210.28 187 300.4 30.9 390.53 187 210.28 187"/><polygon class="cls-1" points="109.67 373 199.79 216.9 289.91 373 109.67 373"/><polygon class="cls-1" points="309.55 373 399.67 216.9 489.79 373 309.55 373"/><polygon class="cls-1" points="408.81 568 498.93 411.9 589.05 568 408.81 568"/><polygon class="cls-1" points="210.28 568 300.4 411.9 390.53 568 210.28 568"/><polygon class="cls-1" points="9.05 568 99.17 411.9 189.3 568 9.05 568"/><polygon class="cls-1" points="289.91 393 199.79 549.1 109.67 393 289.91 393"/><polygon class="cls-1" points="489.79 393 399.67 549.1 309.55 393 489.79 393"/><polygon class="cls-1" points="390.53 202 300.4 358.1 210.28 202 390.53 202"/></svg>