<svg id="Layer_1" data-name="Layer 1" xmlns="http://www.w3.org/2000/svg" viewBox="0 0 619.68 619.68"><defs><style>.cls-1,.cls-2,.cls-3,.cls-4,.cls-5,.cls-6{fill:none;}.cls-1,.cls-2,.cls-3,.cls-4,.cls-5{stroke:#fff;stroke-miterlimit:10;}.cls-1,.cls-5{stroke-width:5.62px;}.cls-2{stroke-width:5.2px;}.cls-3{stroke-width:5.55px;}.cls-4{stroke-width:6px;}.cls-5{stroke-linecap:round;}</style></defs><title>web_icons</title><line class="cls-1" x1="358.58" y1="338.17" x2="528.45" y2="436.89"/><line class="cls-1" x1="348" y1="412.94" x2="495.64" y2="498.74"/><line class="cls-1" x1="419.78" y1="290.27" x2="565.62" y2="375.03"/><line class="cls-1" x1="90.51" y1="182.37" x2="261.2" y2="281.57"/><line class="cls-1" x1="54.06" y1="244.65" x2="202.21" y2="330.75"/><line class="cls-2" x1="127.99" y1="116.77" x2="274.51" y2="201.92"/><rect class="cls-1" x="18.24" y="140.41" width="290.38" height="168.69" transform="translate(-113.09 252.3) rotate(-59.67)"/><line class="cls-1" x1="64.17" y1="335.58" x2="210.82" y2="84.96"/><line class="cls-1" x1="111.03" y1="363.7" x2="257.68" y2="113.07"/><rect class="cls-1" x="311.06" y="310.59" width="290.38" height="168.69" transform="translate(-115.04 589.27) rotate(-59.67)"/><line class="cls-1" x1="356.99" y1="505.77" x2="503.64" y2="255.14"/><line class="cls-1" x1="403.85" y1="533.88" x2="550.5" y2="283.26"/><path class="cls-3" d="M383.5,293L308.91,419.24l-42.18,11L225.32,406l-11-42.18L288.87,237.6"/><path class="cls-3" d="M288.69,237.49l23.8-41,42.18-11,41.41,24.23,11,42.18-23.8,41"/><path class="cls-4" d="M190.82,419.39c12.67-11.95,35.19-7.1,51.21,9.89s19.48,39.69,6.81,51.64Z"/><circle class="cls-1" cx="202.1" cy="465.14" r="7.05" transform="translate(-264.06 265.39) rotate(-43.32)"/><path class="cls-5" d="M209.43,500.35a36,36,0,0,1-43-39.76"/><path class="cls-5" d="M211.91,524.88a60.54,60.54,0,0,1-70.32-61.51"/><path class="cls-5" d="M212.23,548.65A84.13,84.13,0,0,1,118,468.49"/><line class="cls-1" x1="207.03" y1="461.88" x2="221.54" y2="449.8"/><rect class="cls-6" width="619.68" height="619.68"/></svg>