<svg id="Layer_1" data-name="Layer 1" xmlns="http://www.w3.org/2000/svg" viewBox="0 0 598.1 598.1"><defs><style>.cls-1{fill:none;stroke:#231f20;stroke-miterlimit:10;stroke-width:6px;}</style></defs><title>web_icons</title><path class="cls-1" d="M429.1,169V103c0-51.9-58.86-94-131-94s-131,42.07-131,94V361m0,69v65.09c0,51.9,58.86,94,131,94s131-42.07,131-94V237m-69,0V439.17c0,37.09-27.85,67.16-62,67.16s-62-30.07-62-67.16V432m0-72V158.94c0-37.09,27.85-67.16,62-67.16s62,30.07,62,67.16V169"/><path class="cls-1" d="M431.1,431h64c51.9,0,94-58.86,94-131s-42.07-131-94-131h-259m-70,0H103c-51.9,0-94,58.86-94,131s42.07,131,94,131H359.1m1-69H158.94c-37.09,0-67.16-27.85-67.16-62s30.07-62,67.16-62h9.17m69,0H439.17c37.09,0,67.16,27.85,67.16,62s-30.07,62-67.16,62H430.1"/></svg>