<svg id="Layer_1" data-name="Layer 1" xmlns="http://www.w3.org/2000/svg" xmlns:xlink="http://www.w3.org/1999/xlink" viewBox="0 0 1024 300"><defs><style>.cls-1{fill:url(#linear-gradient);}.cls-2{fill:url(#linear-gradient-2);}.cls-3{fill:url(#linear-gradient-3);}.cls-4{fill:url(#linear-gradient-4);}.cls-5{fill:url(#linear-gradient-5);}.cls-6{fill:url(#linear-gradient-6);}.cls-7{fill:url(#linear-gradient-7);}.cls-8{fill:url(#linear-gradient-8);}.cls-9{fill:url(#linear-gradient-9);}.cls-10{fill:url(#linear-gradient-10);}.cls-11{fill:url(#linear-gradient-11);}.cls-12{fill:url(#linear-gradient-12);}.cls-13{fill:url(#linear-gradient-13);}.cls-14{fill:url(#linear-gradient-14);}.cls-15{fill:url(#linear-gradient-15);}.cls-16{fill:url(#linear-gradient-16);}.cls-17{fill:url(#linear-gradient-17);}.cls-18{fill:url(#linear-gradient-18);}.cls-19{fill:url(#linear-gradient-19);}.cls-20{fill:url(#linear-gradient-20);}.cls-21{fill:url(#linear-gradient-21);}.cls-22{fill:url(#linear-gradient-22);}.cls-23{fill:url(#linear-gradient-23);}.cls-24{fill:url(#linear-gradient-24);}.cls-25{fill:url(#linear-gradient-25);}.cls-26{fill:url(#linear-gradient-26);}.cls-27{fill:url(#linear-gradient-27);}.cls-28{fill:url(#linear-gradient-28);}.cls-29{fill:url(#linear-gradient-29);}.cls-30{fill:url(#linear-gradient-30);}.cls-31{fill:url(#linear-gradient-31);}.cls-32{fill:url(#linear-gradient-32);}.cls-33{fill:url(#linear-gradient-33);}.cls-34{fill:url(#linear-gradient-34);}.cls-35{fill:url(#linear-gradient-35);}.cls-36{fill:url(#linear-gradient-36);}.cls-37{fill:url(#linear-gradient-37);}.cls-38{fill:url(#linear-gradient-38);}.cls-39{fill:url(#linear-gradient-39);}.cls-40{fill:url(#linear-gradient-40);}.cls-41{fill:url(#linear-gradient-41);}.cls-42{fill:url(#linear-gradient-42);}.cls-43{fill:url(#linear-gradient-43);}</style><linearGradient id="linear-gradient" x1="181.92" y1="133.55" x2="31.88" y2="312.35" gradientUnits="userSpaceOnUse"><stop offset="0" stop-color="#fff"/><stop offset="0.09" stop-color="#ebebeb"/><stop offset="0.3" stop-color="#bebebe"/><stop offset="0.5" stop-color="#9b9b9b"/><stop offset="0.69" stop-color="#828282"/><stop offset="0.86" stop-color="#737373"/><stop offset="1" stop-color="#6e6e6e"/></linearGradient><linearGradient id="linear-gradient-2" x1="23.72" y1="59.57" x2="19.74" y2="173.55" gradientUnits="userSpaceOnUse"><stop offset="0" stop-color="#fff"/><stop offset="1" stop-color="#8a8a8a"/></linearGradient><linearGradient id="linear-gradient-3" x1="50.51" y1="187.01" x2="-51.23" y2="308.26" gradientUnits="userSpaceOnUse"><stop offset="0" stop-color="#fff"/><stop offset="0.02" stop-color="#fcfcfc"/><stop offset="0.34" stop-color="#cbcbcb"/><stop offset="0.62" stop-color="#a8a8a8"/><stop offset="0.85" stop-color="#929292"/><stop offset="1" stop-color="#8a8a8a"/></linearGradient><linearGradient id="linear-gradient-4" x1="-106.93" y1="120.37" x2="39.9" y2="146.26" gradientUnits="userSpaceOnUse"><stop offset="0" stop-color="#fff"/><stop offset="0.15" stop-color="#f9f9f9"/><stop offset="0.36" stop-color="#e7e7e7"/><stop offset="0.6" stop-color="#cbcbcb"/><stop offset="0.85" stop-color="#a3a3a3"/><stop offset="1" stop-color="#8a8a8a"/></linearGradient><linearGradient id="linear-gradient-5" x1="48.54" y1="89.34" x2="-29.7" y2="-3.91" gradientUnits="userSpaceOnUse"><stop offset="0" stop-color="#fff"/><stop offset="1" stop-color="#a9a9a9"/></linearGradient><linearGradient id="linear-gradient-6" x1="69.24" y1="18.07" x2="192.72" y2="-3.71" xlink:href="#linear-gradient-2"/><linearGradient id="linear-gradient-7" x1="134.63" y1="42.3" x2="195.08" y2="208.39" gradientUnits="userSpaceOnUse"><stop offset="0" stop-color="#fff"/><stop offset="0.17" stop-color="#fbfbfb"/><stop offset="0.36" stop-color="#eee"/><stop offset="0.56" stop-color="#d8d8d8"/><stop offset="0.76" stop-color="#bababa"/><stop offset="0.96" stop-color="#939393"/><stop offset="1" stop-color="#8a8a8a"/></linearGradient><linearGradient id="linear-gradient-8" x1="81.61" y1="271.58" x2="288.6" y2="271.58" gradientUnits="userSpaceOnUse"><stop offset="0" stop-color="#fff"/><stop offset="0.01" stop-color="#fefefe"/><stop offset="1" stop-color="#8a8a8a"/></linearGradient><linearGradient id="linear-gradient-9" x1="343.62" y1="120.74" x2="251.15" y2="192.99" gradientUnits="userSpaceOnUse"><stop offset="0" stop-color="#fff"/><stop offset="0.62" stop-color="#bebebe"/><stop offset="1" stop-color="#949494"/></linearGradient><linearGradient id="linear-gradient-10" x1="248.1" y1="292.58" x2="414.6" y2="292.58" gradientUnits="userSpaceOnUse"><stop offset="0" stop-color="#fff"/><stop offset="0.03" stop-color="#fafafa"/><stop offset="0.34" stop-color="#cdcdcd"/><stop offset="0.62" stop-color="#acacac"/><stop offset="0.84" stop-color="#989898"/><stop offset="1" stop-color="#919191"/></linearGradient><linearGradient id="linear-gradient-11" x1="319.57" y1="13.18" x2="299.98" y2="199.54" gradientUnits="userSpaceOnUse"><stop offset="0" stop-color="#fff"/><stop offset="0.1" stop-color="#e9e9e9"/><stop offset="0.33" stop-color="#bcbcbc"/><stop offset="0.53" stop-color="#9b9b9b"/><stop offset="0.7" stop-color="#878787"/><stop offset="0.81" stop-color="gray"/></linearGradient><linearGradient id="linear-gradient-12" x1="174.66" y1="-47.89" x2="251.26" y2="43.39" xlink:href="#linear-gradient-2"/><linearGradient id="linear-gradient-13" x1="403.1" y1="11.63" x2="328.73" y2="74.04" gradientUnits="userSpaceOnUse"><stop offset="0" stop-color="#fff"/><stop offset="0.16" stop-color="#f3f3f3"/><stop offset="0.46" stop-color="#d3d3d3"/><stop offset="0.85" stop-color="#9f9f9f"/><stop offset="1" stop-color="#8a8a8a"/></linearGradient><linearGradient id="linear-gradient-14" x1="371.66" y1="15.62" x2="255.32" y2="-82" xlink:href="#linear-gradient-10"/><linearGradient id="linear-gradient-15" x1="335.1" y1="303.83" x2="479.09" y2="303.83" xlink:href="#linear-gradient-2"/><linearGradient id="linear-gradient-16" x1="521.24" y1="174.04" x2="391.2" y2="126.7" gradientUnits="userSpaceOnUse"><stop offset="0" stop-color="#7a7a7a"/><stop offset="0.12" stop-color="#818181"/><stop offset="0.29" stop-color="#959595"/><stop offset="0.51" stop-color="#b6b6b6"/><stop offset="0.74" stop-color="#e3e3e3"/><stop offset="0.87" stop-color="#fff"/></linearGradient><linearGradient id="linear-gradient-17" x1="489.47" y1="-34.44" x2="450.72" y2="72" gradientUnits="userSpaceOnUse"><stop offset="0" stop-color="#fff"/><stop offset="0.37" stop-color="#dbdbdb"/><stop offset="0.78" stop-color="#bbb"/><stop offset="1" stop-color="#afafaf"/></linearGradient><linearGradient id="linear-gradient-18" x1="414.6" y1="238.59" x2="525.59" y2="238.59" gradientUnits="userSpaceOnUse"><stop offset="0.26" stop-color="#fff"/><stop offset="0.37" stop-color="#f9f9f9"/><stop offset="0.53" stop-color="#e7e7e7"/><stop offset="0.7" stop-color="#cbcbcb"/><stop offset="0.89" stop-color="#a3a3a3"/><stop offset="1" stop-color="#8a8a8a"/></linearGradient><linearGradient id="linear-gradient-19" x1="485.93" y1="158.33" x2="641.13" y2="101.84" gradientUnits="userSpaceOnUse"><stop offset="0" stop-color="#8a8a8a"/><stop offset="0.02" stop-color="#919191"/><stop offset="0.14" stop-color="#b2b2b2"/><stop offset="0.27" stop-color="#cecece"/><stop offset="0.41" stop-color="#e4e4e4"/><stop offset="0.56" stop-color="#f3f3f3"/><stop offset="0.74" stop-color="#fcfcfc"/><stop offset="1" stop-color="#fff"/></linearGradient><linearGradient id="linear-gradient-20" x1="563.03" y1="300.28" x2="538.27" y2="159.85" gradientUnits="userSpaceOnUse"><stop offset="0" stop-color="#fff"/><stop offset="0.15" stop-color="#e3e3e3"/><stop offset="0.42" stop-color="#b6b6b6"/><stop offset="0.66" stop-color="#959595"/><stop offset="0.86" stop-color="#818181"/><stop offset="1" stop-color="#7a7a7a"/></linearGradient><linearGradient id="linear-gradient-21" x1="487.15" y1="18.07" x2="644.64" y2="109" gradientUnits="userSpaceOnUse"><stop offset="0" stop-color="#919191"/><stop offset="0.17" stop-color="#9d9d9d"/><stop offset="0.49" stop-color="#bebebe"/><stop offset="0.9" stop-color="#f2f2f2"/><stop offset="1" stop-color="#fff"/></linearGradient><linearGradient id="linear-gradient-22" x1="629.11" y1="198.59" x2="750.7" y2="53.7" xlink:href="#linear-gradient-21"/><linearGradient id="linear-gradient-23" x1="599.41" y1="72.48" x2="675.57" y2="-18.29" gradientUnits="userSpaceOnUse"><stop offset="0" stop-color="#828282"/><stop offset="0.1" stop-color="#909090"/><stop offset="0.72" stop-color="#e0e0e0"/><stop offset="1" stop-color="#fff"/></linearGradient><linearGradient id="linear-gradient-24" x1="575.09" y1="277.58" x2="741.58" y2="277.58" xlink:href="#linear-gradient-20"/><linearGradient id="linear-gradient-25" x1="591.53" y1="271.96" x2="591.53" y2="355" xlink:href="#linear-gradient-20"/><linearGradient id="linear-gradient-26" x1="684.02" y1="136.2" x2="797.38" y2="201.65" gradientUnits="userSpaceOnUse"><stop offset="0" stop-color="#fff"/><stop offset="0.1" stop-color="#f2f2f2"/><stop offset="0.51" stop-color="#bebebe"/><stop offset="0.83" stop-color="#9d9d9d"/><stop offset="1" stop-color="#919191"/></linearGradient><linearGradient id="linear-gradient-27" x1="654.58" y1="-11.9" x2="822.57" y2="-11.9" gradientUnits="userSpaceOnUse"><stop offset="0" stop-color="#6e6e6e"/><stop offset="0.15" stop-color="#939393"/><stop offset="0.33" stop-color="#bababa"/><stop offset="0.5" stop-color="#d8d8d8"/><stop offset="0.68" stop-color="#eee"/><stop offset="0.85" stop-color="#fbfbfb"/><stop offset="1" stop-color="#fff"/></linearGradient><linearGradient id="linear-gradient-28" x1="839.57" y1="-37.49" x2="736.8" y2="68.93" gradientUnits="userSpaceOnUse"><stop offset="0" stop-color="#fff"/><stop offset="0.14" stop-color="#f4f4f4"/><stop offset="0.39" stop-color="#d7d7d7"/><stop offset="0.71" stop-color="#a9a9a9"/><stop offset="1" stop-color="#7a7a7a"/></linearGradient><linearGradient id="linear-gradient-29" x1="788.2" y1="166.55" x2="842.83" y2="149.85" gradientUnits="userSpaceOnUse"><stop offset="0" stop-color="#787878"/><stop offset="0.15" stop-color="#848484"/><stop offset="0.41" stop-color="#a5a5a5"/><stop offset="0.77" stop-color="#d9d9d9"/><stop offset="1" stop-color="#fff"/></linearGradient><linearGradient id="linear-gradient-30" x1="810.99" y1="38.81" x2="933.59" y2="109.59" gradientUnits="userSpaceOnUse"><stop offset="0" stop-color="#fff"/><stop offset="0.22" stop-color="#e7e7e7"/><stop offset="0.67" stop-color="#aaa"/><stop offset="1" stop-color="#7a7a7a"/></linearGradient><linearGradient id="linear-gradient-31" x1="896.93" y1="27.2" x2="843.85" y2="-94.32" xlink:href="#linear-gradient-23"/><linearGradient id="linear-gradient-32" x1="844.06" y1="69.67" x2="976.45" y2="118.16" gradientUnits="userSpaceOnUse"><stop offset="0.19" stop-color="gray"/><stop offset="0.3" stop-color="#878787"/><stop offset="0.47" stop-color="#9b9b9b"/><stop offset="0.67" stop-color="#bcbcbc"/><stop offset="0.9" stop-color="#e9e9e9"/><stop offset="1" stop-color="#fff"/></linearGradient><linearGradient id="linear-gradient-33" x1="822.96" y1="196.69" x2="910.85" y2="228.68" xlink:href="#linear-gradient-27"/><linearGradient id="linear-gradient-34" x1="935.29" y1="208.91" x2="935.29" y2="147.62" xlink:href="#linear-gradient-21"/><linearGradient id="linear-gradient-35" x1="738.57" y1="284.29" x2="842" y2="344.01" gradientUnits="userSpaceOnUse"><stop offset="0" stop-color="gray"/><stop offset="0.19" stop-color="#9d9d9d"/><stop offset="0.56" stop-color="#d2d2d2"/><stop offset="0.85" stop-color="#f3f3f3"/><stop offset="1" stop-color="#fff"/></linearGradient><linearGradient id="linear-gradient-36" x1="859.53" y1="217.54" x2="974.42" y2="401.28" gradientUnits="userSpaceOnUse"><stop offset="0.14" stop-color="#6e6e6e"/><stop offset="0.15" stop-color="#727272"/><stop offset="0.29" stop-color="#9d9d9d"/><stop offset="0.43" stop-color="silver"/><stop offset="0.57" stop-color="#dcdcdc"/><stop offset="0.71" stop-color="#efefef"/><stop offset="0.85" stop-color="#fbfbfb"/><stop offset="1" stop-color="#fff"/></linearGradient><linearGradient id="linear-gradient-37" x1="809.08" y1="285.46" x2="987.57" y2="285.46" xlink:href="#linear-gradient-19"/><linearGradient id="linear-gradient-38" x1="917.07" y1="248.52" x2="1070.06" y2="248.52" gradientUnits="userSpaceOnUse"><stop offset="0" stop-color="#fff"/><stop offset="0.28" stop-color="#e0e0e0"/><stop offset="0.9" stop-color="#909090"/><stop offset="1" stop-color="#828282"/></linearGradient><linearGradient id="linear-gradient-39" x1="935.29" y1="303.83" x2="1074.56" y2="303.83" gradientUnits="userSpaceOnUse"><stop offset="0.14" stop-color="#6e6e6e"/><stop offset="0.32" stop-color="#888"/><stop offset="0.72" stop-color="#cbcbcb"/><stop offset="1" stop-color="#fff"/></linearGradient><linearGradient id="linear-gradient-40" x1="884.07" y1="-39.65" x2="1092.56" y2="-39.65" xlink:href="#linear-gradient-7"/><linearGradient id="linear-gradient-41" x1="965.5" y1="52.26" x2="1111.82" y2="-1" xlink:href="#linear-gradient-20"/><linearGradient id="linear-gradient-42" x1="982.98" y1="102" x2="1142.02" y2="136.62" gradientUnits="userSpaceOnUse"><stop offset="0" stop-color="#919191"/><stop offset="0.17" stop-color="#afafaf"/><stop offset="0.41" stop-color="#d2d2d2"/><stop offset="0.63" stop-color="#ebebeb"/><stop offset="0.83" stop-color="#fafafa"/><stop offset="1" stop-color="#fff"/></linearGradient><linearGradient id="linear-gradient-43" x1="982" y1="206.98" x2="1169.06" y2="206.98" xlink:href="#linear-gradient-30"/></defs><title>Untitled-1</title><polygon class="cls-1" points="35.11 174.09 144.61 115.59 248.1 189.09 81.61 354.08 35.11 174.09"/><polygon class="cls-2" points="-99.88 81.09 35.11 174.09 144.61 115.59 81.61 61.59 -99.88 81.09"/><polygon class="cls-3" points="-99.88 162.09 35.11 174.09 81.61 354.08 -9.13 343.58 -99.88 162.09"/><polygon class="cls-4" points="-100 81.09 34.99 174.09 -100 162.09 -100 81.09"/><polygon class="cls-5" points="53.11 -73.4 -99.5 81.09 81.61 61.59 53.11 -73.4"/><polygon class="cls-6" points="183.61 -55.4 53.11 -73.4 81.61 61.59 195.61 90.09 183.61 -55.4"/><polygon class="cls-7" points="248.1 189.09 195.61 90.09 81.61 61.59 144.61 115.59 248.1 189.09"/><polygon class="cls-8" points="81.61 354.08 288.6 324.08 248.1 189.09 81.61 354.08"/><polygon class="cls-9" points="195.61 90.09 414.6 211.59 248.1 189.09 195.61 90.09"/><polygon class="cls-10" points="288.6 324.08 335.1 396.08 414.6 211.59 248.1 189.09 288.6 324.08"/><polygon class="cls-11" points="195.61 90.09 273.6 8.35 387.6 136.59 414.6 211.59 195.61 90.09"/><polygon class="cls-12" points="183.61 -55.4 248.1 -73.4 273.6 8.35 195.61 90.09 183.61 -55.4"/><polygon class="cls-13" points="387.6 136.59 455.09 73.59 362.1 21.1 273.6 8.35 387.6 136.59"/><polygon class="cls-14" points="248.1 -73.4 408.6 -28.4 362.1 21.1 273.6 8.35 248.1 -73.4"/><polygon class="cls-15" points="335.1 396.08 479.09 315.08 414.6 211.59 335.1 396.08"/><polygon class="cls-16" points="455.09 73.59 525.59 162.09 414.6 211.59 387.6 136.59 455.09 73.59"/><polygon class="cls-17" points="408.6 -28.4 584.09 0 455.09 73.59 362.1 21.1 408.6 -28.4"/><polygon class="cls-18" points="479.09 315.08 525.59 162.09 414.6 211.59 479.09 315.08"/><polygon class="cls-19" points="455.09 73.59 644.08 109.97 632.08 201.09 525.59 162.09 455.09 73.59"/><polygon class="cls-20" points="479.09 315.08 575.09 271.58 632.08 201.09 525.59 162.09 479.09 315.08"/><polygon class="cls-21" points="644.08 109.97 584.09 0 455.09 73.59 644.08 109.97"/><polygon class="cls-22" points="632.08 201.09 794.08 90.09 696.58 30.1 644.08 109.97 632.08 201.09"/><polygon class="cls-23" points="584.09 0 654.58 -35.9 696.58 30.1 644.08 109.97 584.09 0"/><polygon class="cls-24" points="632.08 201.09 741.58 279.08 704.08 354.08 575.09 271.58 632.08 201.09"/><polygon class="cls-25" points="479.05 315.75 606.59 355 704 355 575.09 271.96 479.05 315.75"/><polygon class="cls-26" points="741.58 279.08 809.08 234.84 794.08 90.09 632.08 201.09 741.58 279.08"/><polygon class="cls-27" points="696.58 30.1 822.58 -53.9 654.58 -35.9 696.58 30.1"/><polygon class="cls-28" points="794.08 90.09 828.58 8.35 822.58 -53.9 696.58 30.1 794.08 90.09"/><polygon class="cls-29" points="809.08 234.84 846.57 162.09 794.08 90.09 809.08 234.84"/><polygon class="cls-30" points="828.58 8.35 953.07 18.1 846.57 162.09 794.08 90.09 828.58 8.35"/><polygon class="cls-31" points="822.58 -53.9 884.07 -97.4 953.07 18.1 828.58 8.35 822.58 -53.9"/><polygon class="cls-32" points="846.57 162.09 981.57 150.84 987.57 61.59 953.07 18.1 846.57 162.09"/><polygon class="cls-33" points="809.08 234.84 917.07 211.59 846.57 162.09 809.08 234.84"/><polygon class="cls-34" points="981.57 150.84 1024 220.59 917.07 211.59 846.57 162.09 981.57 150.84"/><polygon class="cls-35" points="809.08 234.84 846.57 336.08 704 354.5 741.58 279.08 809.08 234.84"/><polygon class="cls-36" points="917.07 211.59 935.29 271.58 809.08 234.84 917.07 211.59"/><polygon class="cls-37" points="846.57 336.08 987.57 315.08 935.29 271.58 809.08 234.84 846.57 336.08"/><polygon class="cls-38" points="1024 220.59 1070.06 285.46 935.29 271.58 917.07 211.59 1024 220.59"/><polygon class="cls-39" points="987.57 315.08 1074.56 336.08 1070.06 285.46 935.29 271.58 987.57 315.08"/><polygon class="cls-40" points="884.07 -97.4 1092.56 -53.9 953.07 18.1 884.07 -97.4"/><polygon class="cls-41" points="987.57 61.59 1074.56 72.47 1092.56 -53.9 953.07 18.1 987.57 61.59"/><polygon class="cls-42" points="982 151 1108 151 1074.56 72.72 987.57 61.97 982 151"/><polygon class="cls-43" points="1024 220.84 1169.06 262.96 1108 151 982 151 1024 220.84"/></svg>